<?xml version="1.0" encoding="UTF-8"?>
<svg width="844" height="203" inkscape:version="1.0.2 (e86c870879, 2021-01-15)" sodipodi:docname="Overlord_(novel_series).svg" version="1.1" viewBox="0 0 844 203" xmlns="http://www.w3.org/2000/svg" xmlns:cc="http://creativecommons.org/ns#" xmlns:dc="http://purl.org/dc/elements/1.1/" xmlns:inkscape="http://www.inkscape.org/namespaces/inkscape" xmlns:rdf="http://www.w3.org/1999/02/22-rdf-syntax-ns#" xmlns:sodipodi="http://sodipodi.sourceforge.net/DTD/sodipodi-0.dtd">
 <sodipodi:namedview bordercolor="#666666" borderopacity="1" fit-margin-bottom="0" fit-margin-left="0" fit-margin-right="0" fit-margin-top="0" gridtolerance="10" guidetolerance="10" inkscape:current-layer="svg1155" inkscape:cx="770.77327" inkscape:cy="29.032816" inkscape:pageopacity="0" inkscape:pageshadow="2" inkscape:window-height="1014" inkscape:window-maximized="1" inkscape:window-width="1920" inkscape:window-x="0" inkscape:window-y="36" inkscape:zoom="0.56644102" objecttolerance="10" pagecolor="#ffffff" showgrid="false"/>
 <metadata>
  <rdf:RDF>
   <cc:Work rdf:about="">
    <dc:format>image/svg+xml</dc:format>
    <dc:type rdf:resource="http://purl.org/dc/dcmitype/StillImage"/>
    <dc:title/>
   </cc:Work>
  </rdf:RDF>
 </metadata>
 <path d="m612 202c-2.79-1.7-3.98-4.62-3.15-7.76.869-3.3 1.11-4.66 1.46-8.27.199-2.07.544-5.37.769-7.33.37-3.24.266-17.4-.163-22.3-.0927-1.05-.0136-1.7.191-1.58.192.119.349.0368.349-.182 0-.219-.157-.398-.349-.398-.192 0-.448-.973-.569-2.16-.238-2.34-1.03-6.17-1.97-9.56-.327-1.17-.492-2.4-.367-2.73.378-.985 3.31-.749 5.99.483 4.83 2.22 5.32 4.15 2.89 11.3-.48 1.42-.846 6.52-.56 7.82.271 1.23 1.61 1.95 3.63 1.95 1.3 0 9.02 1.95 11 2.78 3.25 1.36 5.6 5.77 4.34 8.14-.535 1-2.33 1.86-3.88 1.86-1.14 0-1.74-.436-4.81-3.5-3.96-3.94-5.57-5.24-7.56-6.07-1.31-.549-1.41-.537-2.18.27-.769.807-.795 1.08-.566 5.92.132 2.79.361 6.51.51 8.27.323 3.82.281 6.27-.179 10.4-.189 1.71-.255 3.2-.148 3.31.445.445 1.13 3.87 1.14 5.73.0143 1.72-.136 2.16-1.08 3.1-1.31 1.31-3.02 1.45-4.74.399zm-368 .0451c-.362-.0834-.658-.308-.658-.5 0-.192-.211-.354-.47-.36-.666-.0167-1.56-1.39-2.26-3.45-.635-1.88-2.35-4.59-3.87-6.11-1.02-1.02-1.21-2.08-.374-2.08.3 0 1.37.177 2.38.392 2.39.512 3.71.0206 4.4-1.64.358-.857.558-3.28.635-7.7.0989-5.63.0334-6.53-.518-7.08-.591-.591-.698-.587-1.69.0587-.581.379-2.36 1.76-3.95 3.07-1.59 1.31-3.06 2.38-3.26 2.38s-.416.127-.485.282c-.0689.155-.887.782-1.82 1.39-.93.611-2.4 1.67-3.26 2.35-3.16 2.5-12.6 7.55-16 8.55-2.12.63-3.06.317-2.19-.732.627-.756 9.11-6.49 10.2-6.92.47-.179 1.62-1.15 2.55-2.16.934-1.01 2.29-2.28 3.01-2.83 2.32-1.77 8.43-7.94 10.7-10.8 1.23-1.55 2.32-2.9 2.43-3.01.707-.67 1.45-2.31 1.27-2.79-.38-.99-1.51-1.04-6.25-.266-2.54.414-5.87.867-7.41 1.01-1.54.14-3.99.666-5.45 1.17-1.46.503-3.76 1.01-5.11 1.13-2.24.196-2.55.132-3.57-.73-2.32-1.96-4.28-7.48-3.03-8.52.511-.424.973-.382 2.95.266 2.8.918 7.33 1.28 16.3 1.31 11.3.0391 13.2-.324 13.7-2.67.288-1.18-.686-5.7-1.86-8.64-.525-1.31-.992-2.64-1.04-2.96-.0465-.317-.346-.723-.665-.901-.755-.423-1.58-2.42-1.3-3.16.262-.682 1.7-.731 4.45-.151 5.06 1.07 7.76 3.59 7.32 6.85-.409 3.01-.598 4.02-.814 4.37-.415.672-.285 3.76.183 4.33.687.828 1.86.702 5.35-.574 4.56-1.67 6.66-1.5 9.41.749.255.209 1.03.833 1.72 1.39 1.54 1.23 1.95 2.24 1.47 3.61-.687 1.97-2.91 2.33-7.61 1.22-3.01-.707-8.66-1.17-10.1-.816-1.54.387-1.91 1.93-1.69 7.03.109 2.48.0467 4.6-.137 4.71-.514.318-.398 1.72.197 2.39.32.357.625 1.87.767 3.79.129 1.76.31 3.7.402 4.32.0917.62.26 2.38.374 3.9.114 1.53.372 3.08.573 3.46.201.376.471 1.93.599 3.44.246 2.91.345 2.57-2.04 6.91-.772 1.4-2.83 2.17-4.68 1.74zm1.22-37.7c0-.207-.169-.376-.376-.376s-.376.169-.376.376.169.376.376.376.376-.169.376-.376zm.752-15.4c0-.207-.169-.376-.376-.376-.207 0-.376.169-.376.376 0 .207.169.376.376.376.207 0 .376-.169.376-.376zm240 43.5c-1.82-.919-2.47-2.72-2.41-6.67.0278-1.96.281-4.25.564-5.07.575-1.68.611-3.84.205-12-.374-7.54-1.12-11.2-3.13-15.6-1.26-2.71-1.54-3.65-1.22-4.04.895-1.08 4.31-.297 5.75 1.32.394.442.95.804 1.24.804.286 0 1.22.356 2.07.791 1.33.681 2.16.783 5.91.738 4.04-.0486 13.3-.58 16.1-.929.684-.0834 2.46-.266 3.95-.407 1.49-.14 3.54-.495 4.56-.788 2.66-.764 3.68-.67 5.93.544 1.6.862 2.2 1.48 3.03 3.08 1.17 2.26 1.1 2.99-.478 4.68-1.4 1.5-4.63 8.3-5.67 11.9-.458 1.6-.934 2.91-1.06 2.91-.123-.00013-.166.841-.0944 1.87.121 1.75.245 1.95 1.96 3.19 1.02.73 1.94 1.73 2.07 2.24.276 1.1-.124 2.58-.616 2.27-.192-.119-.349.0289-.349.328 0 .299-.623.839-1.38 1.2-1.35.64-3.58.632-8.58-.0306-.62-.0821-3.82-.152-7.12-.156-6.23-.007-12.5.739-13.9 1.65-.417.273-1.06 1.35-1.44 2.38-.665 1.85-1.48 2.82-3.17 3.76-1.05.584-1.54.583-2.71-.006zm11.3-11.1c.952-.2 2.81-.402 4.13-.45 2.75-.0993 5.95-.738 7.86-1.57.724-.315 2.38-.781 3.68-1.04 2.52-.494 3.64-1.42 4.07-3.33.723-3.23.954-3.79 1.57-3.8.518-.005.541-.0706.119-.338-.436-.276-.447-.639-.064-2.16.521-2.07 1.27-13.2.928-13.7-.682-1.1-3.26-.995-9.5.4-12.2 2.72-13.3 2.86-16.5 2.05-3.36-.857-4.62.347-4.09 3.91.115.771.31 3.52.432 6.1.397 8.37 1.01 12.3 2.15 13.8.829 1.05 1.01 1.06 5.2.179zm-162 2.04c0-.717.857-1.57 3.62-3.6 2.34-1.72 12.1-11.2 14-13.6 1.51-1.91 2.65-5.04 2.72-7.48.0572-1.93.445-2.92 1.15-2.92.692 0 4.45 3.89 5.41 5.6.534.954 1.07 2.53 1.18 3.49.247 2.07.0758 2.27-5.34 6.22-1.86 1.36-3.89 2.97-4.51 3.58-.62.614-1.8 1.56-2.63 2.1-.827.543-1.59 1.08-1.69 1.18-.262.275-9.27 4.69-11 5.42-1.83.747-2.87.758-2.87.0308zm16.2-12.4c0-.31-.169-.564-.376-.564s-.376.254-.376.564c0 .31.169.564.376.564s.376-.254.376-.564zm44.3 7.39c-.897-.461-1.67-1.48-2.94-3.85-4.61-8.61-8.42-13.5-13.3-17.2-2.37-1.78-2.88-3.08-1.22-3.08.52 0 1.24.161 1.6.358.359.197 2.09 1.01 3.85 1.81 1.76.8 4.13 2.21 5.26 3.12 1.14.917 3.71 2.9 5.72 4.42 4.49 3.39 6.16 5.17 5.53 5.93-.348.42-.311.53.179.53 1.17 0 1.85 3.55.883 4.58-.258.273-.47.666-.47.873 0 .79-1.2 2.01-2.51 2.56-1.25.521-1.48.516-2.59-.0522zm-114-5.53c-.93-.293-2.16-.536-2.74-.539-2.63-.0143-5.26-2.49-6.49-6.1-.803-2.36-.614-3.83.513-3.99.477-.0676 1.08.0571 1.35.277 1.47 1.22 7.67 2.38 15.3 2.86 2.17.136 4.52.319 5.22.407.698.0873 3.4-.0859 6.01-.385 2.61-.299 6.52-.647 8.69-.774 4.92-.288 10.2-1.09 14.1-2.14 4.64-1.25 6.63-1.09 10.6.873 4.47 2.21 5.22 3.79 3.05 6.45-1.1 1.35-3.89 1.85-6.54 1.18-5.1-1.29-9.41-1.71-17.9-1.77-7.86-.0495-9.34.0467-15.3.993-3.62.576-8.13 1.54-10 2.15-3.92 1.25-3.54 1.22-5.77.515zm3.76-3.39c0-.62-.594-.725-.94-.166-.307.496.143 1.2.59.924.192-.119.35-.46.35-.758zm132 3.52c-3.71-.344-5.27-.854-6.49-2.12-1.31-1.37-3.14-5.25-3.14-6.69 0-1.46.79-2.22 1.76-1.68 1.27.702 6.67 2.43 8.01 2.56 5.24.51 27-.0647 32.7-.865.724-.101 2.5-.336 3.95-.523 1.45-.187 3.39-.61 4.32-.941 4.73-1.68 10.9-.938 13.9 1.65 1.33 1.18 1.55 1.59 1.54 2.87-.0225 2.82-1.51 3.73-6 3.65-1.76-.0301-4.45-.32-5.99-.643-5.2-1.1-20.3-1.84-23.3-1.14-.693.165-1.21.149-1.18-.0372.0339-.183.0413-.554.0169-.824-.0689-.762-.796-.121-.796.702 0 .401-.0627.73-.139.73-1.02 0-9.59 1.75-12.5 2.54-3.3.914-4.12 1.01-6.72.768zm5.78-3.47c0-.0912-.169-.27-.376-.398s-.376-.0532-.376.166c0 .219.169.398.376.398s.376-.0746.376-.166zm29.3-2.03c0-.489-.447-.815-.81-.59-.389.24-.0535.904.457.904.195 0 .354-.141.354-.313zm89.8 5.71c-3.88-1.59-5.66-3.03-6.77-5.48-1.71-3.78-.383-5.8 2.75-4.18.661.342 1.88.68 2.71.752.828.0715 2.43.251 3.57.4 2.8.366 22 .356 28-.0141 5.52-.338 9.44-.829 11.7-1.46.827-.236 1.67-.452 1.88-.48.207-.0283.63-.157.94-.286 3.99-1.66 6.47-1.48 10.2.754 2.59 1.54 2.92 1.91 3.18 3.53.161.991.007 1.47-.724 2.26-1.72 1.86-5.08 2.24-11 1.26-4.53-.753-12.1-1.19-20.1-1.16-5.99.0238-6.88.115-9.96 1.03-8.59 2.55-14.8 3.72-16.4 3.08zm57.1-5.02c0-.207-.169-.376-.376-.376-.207 0-.376.169-.376.376s.169.376.376.376c.207 0 .376-.169.376-.376zm35.8-11.1c-1.44-1.21-3.46-4.35-3.46-5.39 0-1.24 5.46.63 7.39 2.54 3.35 3.3-.268 5.92-3.93 2.85zm-580-2.6c-1.88-.458-2.85-.82-4.62-1.72-.359-.183-1.09-.332-1.63-.332-.54 0-1.6-.276-2.35-.614-.755-.338-2.13-.95-3.06-1.36-4.25-1.88-7.34-3.48-9.58-4.98-.618-.414-1.72-1.05-2.45-1.41-4.67-2.33-14.2-10.2-18.5-15.3-3.85-4.56-5.79-7.45-8.84-13.2-.274-.517-.499-1.23-.5-1.58-.00128-.35-.156-.73-.343-.846-1.44-.891-3.8-13.3-3.77-19.9.025-6.67.224-9.88.776-12.5.186-.883.409-2.15.496-2.82.165-1.27.82-5.02 1.33-7.6.162-.827.585-2.52.941-3.76 1.36-4.73 2.01-10.8 1.3-12.2-.16-.311-.649-1.5-1.09-2.65-.437-1.15-1.55-3.01-2.47-4.13-.923-1.13-1.68-2.34-1.68-2.69 0-.614 2.79-2.56 3.67-2.56 1.07 0 6.72-4.47 8.59-6.8.233-.29.741-.807 1.13-1.15.387-.342 1.21-1.26 1.83-2.04.62-.778 1.68-2 2.35-2.73.672-.721 1.22-1.45 1.22-1.63 0-.175.257-.318.572-.318.315 0 .765-.423 1-.94s.553-.94.706-.94.864-.55 1.58-1.22c3.1-2.91 3.98-3.59 10.1-7.9 2.44-1.71 11.7-6.3 12.4-6.15.123.0269.462-.132.752-.353.29-.221 1.29-.624 2.22-.895.93-.271 2.4-.744 3.27-1.05.871-.308 2.01-.452 2.54-.32.671.168.956.0884.956-.268 0-.572 2.58-1.32 5.45-1.58 1.03-.0943 3.4-.327 5.26-.517 4.94-.504 11.1-.475 10.2.0473-.402.225-1.16.455-1.69.511-2.59.277-4.16.604-4.16.869 0 .161-.712.507-1.58.767-2.04.611-5.94 3.59-5.94 4.54 0 .393-.232.932-.515 1.2-.435.407-.413.849.145 2.86.363 1.31.975 2.7 1.36 3.1.386.397 1.12 1.15 1.63 1.66 1.06 1.08 5.95 2.81 7.91 2.8 2.35-.0123 6.37-1.55 7.88-3.01 2.61-2.53 2.3-6.59-.72-9.28l-.96-.855 1.88.257c1.03.141 2.13.245 2.44.231.608-.028 2.73.52 3.95 1.02.414.17 1.51.515 2.44.767.927.252 2.09.776 2.58 1.16.493.388 1.06.606 1.26.483.198-.122.728.114 1.18.526.45.411 1.21.867 1.69 1.01.579.176.799.458.654.837-.156.405-.048.506.37.346.847-.325 4.27 2.31 8.25 6.36 3.64 3.7 7.71 8.54 7.71 9.18 0 .216.153.392.339.392s.938.888 1.67 1.97c.731 1.09 1.77 2.47 2.31 3.09.625.71.939 1.46.868 2.07-.0893.772.0706.981.829 1.09.517.0725 1.7.671 2.63 1.33.93.659 2.15 1.43 2.71 1.71.558.279 1.43.949 1.94 1.49 1.13 1.19 3.25 5 3.25 5.84 0 .332.312 1.32.694 2.2.853 1.96 1.09 2.71 3.19 10.2.923 3.31 1.7 6.75 1.72 7.65.0209.897.116 1.76.211 1.91.0949.153.275 1.76.401 3.57.194 2.8.135 3.36-.393 3.75-.567.414-.569.498-.0233.95.706.586.768 2.75.187 6.61-.218 1.45-.454 3.14-.526 3.76-.282 2.45-.867 5.31-1.31 6.39-.168.413-.508 1.51-.756 2.44s-.773 2.25-1.17 2.93c-.396.684-.72 1.57-.72 1.97 0 .402-.179.73-.398.73-.219 0-.293.171-.164.38.129.209-.115.824-.542 1.37-.427.543-.776 1.15-.776 1.35 0 .676-1.81 3.98-2.63 4.8-.449.449-1.06 1.35-1.36 2-.712 1.55-2.01 3.35-4.15 5.77-.949 1.07-2.07 2.43-2.48 3.01-1.71 2.38-11.2 9.89-12.5 9.89-.318 0-.579.164-.579.365 0 .463-5.33 2.98-9.02 4.27-3.58 1.25-9.62 2.91-11.1 3.06-.62.0616-2.23.315-3.57.563-1.34.248-4.3.765-6.58 1.15-5.86.988-7.17 1.31-8.24 2.01-.518.339-1.16.623-1.43.63-1.2.0311-4.05 3.42-4.05 4.82 0 .558-.263 1.39-.585 1.85-.682.973-2.17 1.04-5.41.254zm4.49-7.35c0-.185-.254-.336-.564-.336s-.564.248-.564.552c0 .336.22.467.564.336.31-.119.564-.367.564-.552zm-20.4-.563c-.125-.125-.449-.138-.721-.0297-.3.12-.211.209.227.227.396.0163.618-.0725.493-.197zm-.274-2.97c0-.31-.169-.564-.376-.564-.207 0-.376.254-.376.564 0 .31.169.564.376.564.207 0 .376-.254.376-.564zm30.1.21c0-.195-.169-.458-.376-.586-.207-.128-.376.0314-.376.354 0 .322.169.586.376.586.207 0 .376-.159.376-.354zm-15.8-.774c0-.207-.169-.376-.376-.376-.207 0-.376.169-.376.376s.169.376.376.376c.207 0 .376-.169.376-.376zm16.6-1.88c3.03.0395 5.12-.136 5.96-.499.31-.135 1.33-.398 2.26-.586 7.93-1.6 14.8-4.53 21.7-9.2 3.49-2.39 10.5-9.65 11.9-12.4.248-.471.889-1.45 1.42-2.17 1.21-1.63 2.6-4.35 2.6-5.08 0-.304.328-.552.73-.552.947 0 1.28-.564.824-1.41-.448-.837.657-3.43 1.36-3.2.258.0875.47-.0101.47-.217 0-.207-.204-.444-.454-.527-.335-.112-.226-1.03.42-3.51.481-1.85.929-3.86.996-4.49.0672-.62.215-1.64.329-2.26.46-2.51.474-10.8.0249-15-.453-4.27-1.73-10.8-2.44-12.4-.18-.414-.519-1.43-.755-2.26-.537-1.89-.684-2.25-2.58-6.4-.854-1.86-1.55-3.6-1.55-3.86s-.267-.578-.594-.704c-.364-.14-.521-.507-.405-.949.112-.43.0193-.665-.23-.582-.23.0768-.906-.415-1.5-1.09s-2.38-1.86-3.96-2.62c-2.31-1.11-3.68-1.48-7.02-1.9-2.28-.287-4.99-.528-6.03-.536-1.03-.008-3.06-.194-4.51-.414-1.45-.22-3.39-.505-4.32-.634-1.3-.18-1.67-.38-1.59-.862.0571-.345-.0697-.735-.282-.866-.218-.135-.386.11-.386.561 0 .907-.675.81-3-.432-.721-.385-1.6-.699-1.94-.699-.349 0-1.11-.386-1.7-.858-.584-.472-1.78-1.32-2.66-1.88-.879-.565-1.6-1.19-1.6-1.4 0-.204-.211-.374-.47-.377-.689-.0097-8.18-7.37-8.18-8.04 0-.448-1.32-1.73-1.78-1.73-.264 0-.481-.127-.483-.282-.0015-.155-.591-.683-1.31-1.17-2.48-1.69-10.5-2.14-13.1-.732-.467.261-1.26.514-1.77.562-1.15.109-6.22 2.26-7.68 3.26-.871.598-1.22.658-1.78.306-1-.626-1.13-.552-.863.504.14.558.0746.94-.161.94-.219 0-.854.423-1.41.94-.558.517-1.14.94-1.29.94-.396 0-6.41 5.98-7.52 7.47-.515.696-1.37 1.8-1.9 2.44-1.26 1.54-4.11 6.13-4.11 6.61 0 .207-.761 1.83-1.69 3.61s-1.69 3.52-1.7 3.86c-.0036.346-.507 2.22-1.12 4.15-.612 1.94-1.04 3.65-.947 3.79.0911.147.0105.844-.179 1.55-.596 2.21-.786 4.47-.928 11.1-.0759 3.51.0293 7.32.234 8.46s.418 2.57.475 3.2c.0566.62.203 1.38.325 1.69.238.604 1.32 5.47 1.63 7.33.104.62.331 1.47.505 1.88.686 1.63.756 2.18.341 2.68-.339.409-.225.713.53 1.41.529.49 1.23 1.78 1.55 2.86.626 2.11 3.23 7.62 3.7 7.83.155.0689.282.292.282.496 0 1.73 7.69 10 12.6 13.6 1.65 1.2 3.2 2.17 3.44 2.17.237 0 .528.254.647.564.119.31.521.564.893.564s1.3.423 2.06.94c.761.517 1.52.939 1.68.937.958-.008 4.6 2.12 4.79 2.8.161.584.293.655.531.285.376-.581 2.02-.287 3.44.615.517.329 1.53.63 2.26.67 1.87.103 4.54.46 5.64.755 1.2.321 8.26.812 9.08.631.34-.0753 1.36-.127 2.26-.116zm-39.9-2.26c0-.45-1.06-.933-1.37-.624-.329.329.229 1.01.828 1.01.298 0 .542-.174.542-.388zm69.5-1.12c0-.207-.169-.376-.376-.376-.207 0-.376.169-.376.376s.169.376.376.376c.207 0 .376-.169.376-.376zm10.9-9.8c0-.195-.248-.354-.552-.354-.335 0-.467.22-.337.562.222.578.889.422.889-.208zm-87.6-2.84c0-.288-.226-.524-.501-.524-.699 0-.985.36-.757.953.241.628 1.26.281 1.26-.429zm92.9-3.53c0-.207-.0746-.376-.166-.376-.0912 0-.27.169-.398.376s-.0532.376.166.376c.219 0 .398-.169.398-.376zm3.76-3.38c0-.207-.179-.376-.398-.376-.219 0-.294.169-.166.376.128.207.307.376.398.376.0912 0 .166-.169.166-.376zm4.32-3.01c.128-.207.0532-.376-.166-.376-.219 0-.398.169-.398.376 0 .207.0746.376.166.376.0912 0 .27-.169.398-.376zm2.44-2.47c0-.664-.809-.548-1.04.149-.0818.246.119.446.446.446.327 0 .595-.268.595-.595zm-2.26-.698c0-.0912-.169-.27-.376-.398s-.376-.0531-.376.166c0 .219.169.398.376.398s.376-.0746.376-.166zm-120-3.22c.128-.207.0532-.376-.166-.376-.219 0-.398.169-.398.376s.0746.376.166.376c.0912 0 .27-.169.398-.376zm123-9.02c0-.207-.0746-.376-.166-.376-.0912 0-.27.169-.398.376-.128.207-.0532.376.166.376.219 0 .398-.169.398-.376zm-121-.752c0-.207-.0746-.376-.166-.376-.0912 0-.27.169-.398.376-.128.207-.0532.376.166.376.219 0 .398-.169.398-.376zm115-7.89c0-.207-.0746-.376-.166-.376-.0912 0-.27.169-.398.376-.128.207-.0532.376.166.376.219 0 .398-.169.398-.376zm11.3-4.89c0-.207-.169-.376-.376-.376-.207 0-.376.169-.376.376 0 .207.169.376.376.376.207 0 .376-.169.376-.376zm-131-2.63c-.128-.207-.392-.376-.586-.376-.195 0-.354.169-.354.376s.264.376.586.376c.322 0 .482-.169.354-.376zm6.95-1.34c0-.298-.169-.542-.376-.542-.207 0-.376.348-.376.774s.169.669.376.542c.207-.128.376-.476.376-.774zm124-4.89c.124-.324.0416-.774-.184-.999-.543-.543-1.61.305-1.32 1.05.275.717 1.22.683 1.5-.0528zm-124-6.72c0-.0912-.169-.27-.376-.398-.207-.128-.376-.0532-.376.166 0 .219.169.398.376.398.207 0 .376-.0746.376-.166zm117-1.97c.0734-.22-.152-.509-.5-.643-.801-.307-.984-.125-.676.676.256.666.95.647 1.18-.0333zm1.98-8.01c0-.207-.179-.376-.398-.376s-.294.169-.166.376c.128.207.307.376.398.376.0912 0 .166-.169.166-.376zm-10.7-.752c.128-.207.0532-.376-.166-.376-.219 0-.398.169-.398.376 0 .207.0746.376.166.376.0912 0 .27-.169.398-.376zm-104-4.89c0-.207-.169-.376-.376-.376-.207 0-.376.169-.376.376 0 .207.169.376.376.376.207 0 .376-.169.376-.376zm3.2-3.76c.128-.207.0532-.376-.166-.376-.219 0-.398.169-.398.376 0 .207.0746.376.166.376s.27-.169.398-.376zm4.14-7.52c.128-.207.0532-.376-.166-.376-.219 0-.398.169-.398.376 0 .207.0746.376.166.376.0912 0 .27-.169.398-.376zm59-.752c.128-.207.0532-.376-.166-.376-.219 0-.398.169-.398.376 0 .207.0746.376.166.376.0912 0 .27-.169.398-.376zm10.7-.918c0-.0912-.169-.27-.376-.398-.207-.128-.376-.0532-.376.166 0 .219.169.398.376.398.207 0 .376-.0746.376-.166zm23.4-.0816c.34-.34-.503-1.3-.916-1.04-.518.32-.392 1.29.168 1.29.276 0 .613-.111.749-.247zm-101-1.09c0-.322-.172-.48-.382-.35-.21.13-.285.394-.166.586.322.521.548.424.548-.236zm5.64-.542c0-.207-.179-.376-.398-.376s-.294.169-.166.376c.128.207.307.376.398.376.0912 0 .166-.169.166-.376zm91.9-2.26c-.128-.207-.392-.376-.586-.376s-.354.169-.354.376c0 .207.264.376.586.376s.482-.169.354-.376zm-83.1-2.3c-.297-.48-.91-.021-.91.681 0 .478.105.501.56.123.308-.255.465-.617.35-.804zm79.5.487c0-.489-.447-.815-.81-.59-.389.24-.0536.904.457.904.195 0 .354-.141.354-.313zm2.78-2.42c.468-.741.107-1.21-.695-.9-.671.258-.805 1.89-.137 1.66.244-.0812.618-.426.832-.765zm-90-1.57c0-.273-.252-.705-.559-.96-.453-.376-.604-.348-.794.147-.264.687.507 1.83 1.02 1.51.183-.113.333-.429.333-.702zm78.2-1.34c0-.207-.169-.376-.376-.376-.207 0-.376.169-.376.376 0 .207.169.376.376.376.207 0 .376-.169.376-.376zm-21.1-.877c.0689-.355-.117-.627-.43-.627-.595 0-1.1.906-.723 1.29.38.38 1.02.0126 1.15-.66zm19.2-.815c0-.31-.254-.564-.564-.564-.587 0-.746.445-.313.877.433.433.877.274.877-.313zm-60.9-2.05c0-.195-.169-.458-.376-.586-.207-.128-.376.0314-.376.354 0 .322.169.586.376.586.207 0 .376-.159.376-.354zm64.2-1.32c.0831-.429-.0524-.609-.376-.502-.278.0926-.564.47-.636.838-.0831.429.0524.609.376.502.278-.0926.564-.47.636-.838zm-13.2-2.36c-.382-.382-.697.193-.384.7.237.383.325.384.453.0015.0871-.261.0561-.577-.0688-.702zm-30.3-.643c0-.607-.532-1.06-.861-.727-.293.293.111 1.27.526 1.27.185 0 .336-.244.336-.542zm-10.9-3.03c0-.31-.254-.564-.564-.564s-.564.254-.564.564.254.564.564.564.564-.254.564-.564zm47.2-3.92c.119-.192.0444-.456-.166-.586-.21-.13-.382.0276-.382.35 0 .66.226.758.548.236zm604 139c0-.126.719-.412 1.6-.634.879-.222 2.44-.677 3.48-1.01 1.03-.333 2.34-.578 2.91-.544.569.0343 1.03-.114 1.03-.329 0-.215.381-.558.846-.761.465-.203 1.69-.876 2.73-1.5 1.03-.619 2.34-1.31 2.91-1.54.569-.226 1.03-.568 1.03-.76s.404-.502.899-.69c1.21-.461 7-5.6 7-6.21 0-.269.248-.585.552-.701.304-.116.818-.769 1.14-1.45s.899-1.83 1.28-2.55c1.66-3.19 2.93-12.2 2.96-21.2.0155-3.72.0398-6.96.054-7.19.0142-.234.381-.519.817-.633 1.04-.272.693-1.23-.4-1.1l-.842.0962.256-5.73c.141-3.15.336-6.75.434-7.99.26-3.31.38-17.9.148-17.9-.177-.0013-.274-1.04-.523-5.59-.0405-.735.132-1.34.409-1.45.619-.238.619-1.2-.00034-1.44-.689-.264-.868-5.06-.206-5.49.395-.26.362-.407-.161-.715-.769-.453-.927-3.31-.223-4.02.316-.316.323-.57.0243-.93-.62-.747-.95-4.1-.515-5.23.211-.547.278-1.1.149-1.23-.376-.376-.403-1.86-.0452-2.55.198-.382.183-.726-.0378-.862-.202-.125-.36-1.71-.351-3.53.0277-5.86-1.76-9.15-5.54-10.2-1.37-.383-1.82-.362-2.84.129-.665.322-1.35.501-1.51.397-.168-.104-.739.791-1.27 1.99-1.04 2.36-1.04 3.53-.007 5.88l.631 1.43-1.23-.62c-2.46-1.24-3.79-3.74-3.77-7.12.007-1.61.236-2.63.8-3.57.434-.721.951-1.68 1.15-2.13.197-.447.707-.924 1.13-1.06.425-.135.773-.406.773-.602 0-.431 2.25-1.85 2.94-1.85.271-.000742.388.168.26.375-.128.207-.0533.376.166.376.219 0 .398-.242.398-.539 0-.532.613-.84 2.32-1.16.482-.0912 1.35-.268 1.92-.392.574-.124 1.59-.284 2.26-.355 2.39-.253 6.14-.994 8.73-1.72 1.45-.407 3.55-.993 4.66-1.3 1.12-.31 3.49-1.3 5.26-2.19 1.78-.896 3.65-1.76 4.16-1.92.513-.161 1.36-.582 1.88-.936 3.48-2.36 5.14-3.39 5.5-3.39.225 0 .693-.314 1.04-.698.418-.462.977-.643 1.66-.534.665.106.859.0463.553-.171-.927-.658 3.35-3.79 7.24-5.3 5.3-2.06 6.23-2.4 6.95-2.52.31-.052 1.92-.367 3.57-.7 3.3-.665 5.07-.769 5.07-.3 0 .168-.318.646-.706 1.06-.388.417-.815 1.1-.949 1.52-.529 1.67-.609 4.74-.155 5.99.388 1.07.382 1.36-.0351 1.62-.651.402-.187 1.18.538.906.324-.124.658.0754.814.486.146.383 1.11 1.52 2.13 2.52 1.37 1.33 1.73 1.9 1.37 2.12-.846.523-.12 1.51 1.11 1.51 1.27 0 1.49-.51.482-1.1-1.03-.6-.0486-.472 2.38.309 1.22.393 2.98.734 3.92.757 10.6.261 11.7.335 12.5.899.493.323 1.05.447 1.23.275.351-.33 4.41.366 4.88.837.152.152.586.276.965.276.379 0 1.07.381 1.53.846.465.465.983.8 1.15.744.466-.155 2.46 1.04 4.97 2.99 2.02 1.56 5.98 5.66 8.19 8.47 2.32 2.95 4.83 4.62 6.92 4.62 1.05 0 1.74.289 2.64 1.11.666.609 1.22 1.33 1.24 1.6.0142.27.0679 2.01.12 3.87.0519 1.86.185 3.81.296 4.32.493 2.29 1.57 5.68 1.87 5.86.178.11.324.573.324 1.03 0 .456.576 2.52 1.28 4.58 1.66 4.87 2.89 11.1 3.03 15.3.0991 3.05.0479 3.34-.597 3.34-.388 0-.705.169-.705.376 0 .207.279.376.619.376.553 0 .596.481.399 4.47-.227 4.62-1.45 11.7-2.37 13.8-.289.651-.525 1.45-.525 1.76 0 .318-.169.683-.376.811s-.376.8-.376 1.49-.338 2.05-.752 3.02c-.414.965-.753 2.04-.754 2.38-.007 1.09-1.75 4.96-2.48 5.51-.568.421-.626.663-.291 1.21.287.471.315 1.4.0891 2.94-.181 1.24-.291 3.56-.243 5.16.107 3.62-.525 4.5-3.35 4.66-2.99.163-6.6.881-8.19 1.63-.827.389-2.35 1.07-3.38 1.52-1.03.449-2.39 1.18-3.01 1.63-.62.449-1.57 1.04-2.12 1.32-.546.277-1.21.908-1.47 1.4-.264.494-.625.898-.8.898-.289 0-4.29 3.95-5.49 5.43-.27.33-1.26 1.74-2.21 3.13-.946 1.39-1.75 2.57-1.78 2.61-.0331.0423-1.58-.334-3.43-.837-3.9-1.06-9.21-2.05-11.8-2.19-.977-.0556-1.94-.2-2.14-.321-.534-.325-16.2-1.28-19-1.16-7.46.325-13.1.962-14.3 1.63-.37.198-1.1.36-1.62.36-.959 0-2.61.619-5.21 1.95-2.47 1.27-1.58-.065 2.38-3.57 2.26-2 2.5-2.15 7.3-4.54 4.6-2.29 9.78-3.89 10.1-3.11.12.283.35.221.682-.185.357-.436 1.52-.702 4.06-.929 1.96-.175 3.82-.287 4.13-.25 2.88.349 12.7.101 17.3-.438.724-.0842 2.5-.268 3.95-.409 1.45-.141 2.8-.381 3.01-.533.207-.152 1.37-.49 2.58-.751 7.92-1.71 11.5-4.19 12.7-8.74.276-1.11.368-11.6.292-33.2-.105-29.8-.151-31.7-.815-33.4-.522-1.35-1.61-2.7-4.23-5.24-3.11-3.02-6.52-7.39-6.53-8.38-.0108-.796-3.14-6.45-4.16-7.51-.604-.63-1.1-1.27-1.1-1.42 0-.258-2.99-3.26-3.24-3.26-.0634 0-1.26-.732-2.66-1.63-3.25-2.07-9.92-4.65-12.8-4.94-.558-.0569-2.2-.285-3.65-.506-1.45-.221-5.34-.354-8.65-.295-4.91.0878-6.53.262-8.83.945-3.41 1.01-5.76 2.06-7.34 3.27-.652.497-1.33.904-1.51.904-.389 0-3.55 3.3-3.55 3.71 0 .157-.297.614-.661 1.01-1.05 1.16-2.02 2.8-2.41 4.07-1.62 5.31-1.61 5.18-1.62 13.7-.009 6.96-.104 8.44-.564 8.72-.473.293-.46.378.094.591.843.323.836 1.9-.0108 2.38-.616.349-.61.408.0928.927.688.508.75.986.739 5.75-.007 2.86-.133 7.15-.282 9.52-.149 2.38-.228 5.51-.175 6.95.0885 2.45.0479 10.9-.0989 20.7-.0737 4.89.354 10.7.81 10.9.178.11.323.465.323.789 0 .324.457 1.61 1.02 2.85 2.15 4.8 6.93 7.78 14 8.75.724.0997 1.54.261 1.81.358.697.25.174.934-.715.934-.956 0-7.09 3.24-14 7.42-1.81 1.09-3.42 1.97-3.59 1.97s-.366.154-.435.343c-.153.418-4.02 3.04-4.48 3.04-.182 0-1.59.846-3.13 1.88-1.54 1.03-2.9 1.88-3.03 1.88-.125 0-1.42.677-2.88 1.5-1.46.827-2.94 1.5-3.29 1.5-.349 0-.968.23-1.38.511-.408.281-1.42.634-2.25.785-.827.151-1.68.421-1.9.6-.217.179-1.4.51-2.63.735-1.23.225-3.17.581-4.3.789-3.96.726-15 1.44-15 .974zm35-10.3c0-.664-.809-.548-1.04.149-.0818.246.119.446.446.446s.595-.268.595-.595zm1.88-.47c0-.489-.447-.815-.81-.59-.389.24-.0533.904.457.904.195 0 .354-.141.354-.313zm68.4-1.9c.838-.531.356-1.73-.695-1.73-.611 0-.976.242-1.07.707-.117.608.468 1.35 1.07 1.35.103 0 .416-.145.695-.321zm-22.9-1.01c0-.553-.803-.742-1.25-.294-.34.34.503 1.3.916 1.04.183-.113.333-.45.333-.748zm1.5-2.96c0-.0912-.169-.27-.376-.398s-.376-.0532-.376.166c0 .219.169.398.376.398s.376-.0746.376-.166zm31.6-2.09c0-.207-.169-.376-.376-.376-.207 0-.376.169-.376.376s.169.376.376.376c.207 0 .376-.169.376-.376zm-68-2.63c0-.207-.169-.376-.376-.376-.207 0-.376.169-.376.376 0 .207.169.376.376.376.207 0 .376-.169.376-.376zm1.5-.376c0-.207-.179-.376-.398-.376-.219 0-.294.169-.166.376.128.207.307.376.398.376.0912 0 .166-.169.166-.376zm56 0c0-.207-.169-.376-.376-.376-.207 0-.376.169-.376.376s.169.376.376.376c.207 0 .376-.169.376-.376zm-71.7-2.07c-.119-.31-.367-.564-.552-.564s-.336.254-.336.564c0 .31.248.564.552.564.336 0 .468-.22.336-.564zm19-.564c0-.207-.179-.376-.398-.376-.219 0-.294.169-.166.376.128.207.307.376.398.376.0912 0 .166-.169.166-.376zm2.11-.65c-.382-.382-.697.193-.384.7.237.383.325.384.453.001.087-.261.056-.577-.0689-.702zm-17.1-6.28c0-.0912-.169-.27-.376-.398s-.376-.0532-.376.166c0 .219.169.398.376.398s.376-.0746.376-.166zm87.4-1.24c.931-.775 1.7-1.61 1.72-1.85.0135-.243.416-.751.894-1.13.479-.377 1.19-1.19 1.59-1.81.394-.62 1.18-1.72 1.74-2.44.562-.724 1.13-1.77 1.27-2.33.137-.56.637-1.44 1.11-1.95.475-.512.792-1 .704-1.09-.143-.143 1.3-4.59 2.11-6.47.357-.835 1.21-5.63 1.19-6.7-.007-.379.162-1.14.373-1.69 1.06-2.77.736-17.7-.473-21.9-.943-3.26-3.19-6.96-5.99-9.85-1.56-1.61-3.04-2.93-3.29-2.93-.248 0-.451-.149-.451-.332 0-.568-4.16-2.34-4.93-2.1-1.66.525-1.65.389-1.76 31.4-.107 30.1-.0148 32.5 1.3 33.9.824.911.945.88 2.89-.736zm-91.9-3.1c0-.207-.169-.376-.376-.376-.207 0-.376.169-.376.376 0 .207.169.376.376.376.207 0 .376-.169.376-.376zm1.28-1.35c.303-.789.289-.909-.104-.909-.183 0-.421.338-.529.752-.232.888.301 1.02.633.157zm102-.699c0-.397-.721-.563-.936-.216-.13.21.0277.382.35.382.322 0 .586-.0746.586-.166zm-91.7-10.5c0-.31-.159-.564-.354-.564-.474 0-.814.587-.513.887.423.423.867.258.867-.323zm0-3.95c0-.207-.169-.376-.376-.376-.207 0-.376.169-.376.376 0 .207.169.376.376.376.207 0 .376-.169.376-.376zm-7.52-6.01c0-.207-.169-.376-.376-.376-.207 0-.376.169-.376.376 0 .207.169.376.376.376.207 0 .376-.169.376-.376zm1.88-1.34c0-.322-.169-.482-.376-.354-.207.128-.376.392-.376.586 0 .195.169.354.376.354.207 0 .376-.264.376-.586zm-6.01-5.97c0-.397-.721-.563-.936-.216-.13.21.0277.382.35.382.322 0 .586-.0746.586-.166zm9.98-2.68c-1.03-.762-1.34-.677-1.34.368 0 1.1.736 1.45 1.5.715.5-.48.481-.603-.166-1.08zm-2.94-2.64c-.358-.358-1.08.222-.809.654.159.257.369.25.639-.0197.221-.221.298-.507.171-.634zm100-.345c0-.31-.169-.564-.376-.564-.207 0-.376.254-.376.564s.169.564.376.564c.207 0 .376-.254.376-.564zm-96.6-.74c0-.336-.22-.467-.564-.336-.31.119-.564.367-.564.552 0 .185.254.336.564.336.31 0 .564-.248.564-.552zm-4.89-.952c0-.207-.179-.376-.398-.376-.219 0-.294.169-.166.376.128.207.307.376.398.376.0911 0 .166-.169.166-.376zm-2.63-4.14c0-.207-.169-.376-.376-.376-.207 0-.376.169-.376.376 0 .207.169.376.376.376.207 0 .376-.169.376-.376zm1.88-1.69c0-.31-.159-.564-.354-.564-.474 0-.814.587-.513.887.423.423.867.258.867-.323zm-5.26-5.47c0-.195-.254-.354-.564-.354-.581 0-.747.444-.323.867.3.3.887-.0392.887-.513zm110-2.99c0-.207-.169-.376-.376-.376-.207 0-.376.169-.376.376 0 .207.169.376.376.376.207 0 .376-.169.376-.376zm1.48-1.28c.316-.38.324-.602.0283-.785-.601-.372-1.5.0725-1.5.74 0 .722.892.749 1.48.0453zm-13.9-8.12c0-.207-.169-.376-.376-.376s-.376.169-.376.376c0 .207.169.376.376.376s.376-.169.376-.376zm-3.01-.918c0-.397-.721-.563-.936-.216-.13.21.0276.382.35.382.322 0 .586-.0746.586-.166zm-3.2-2.84c.128-.207-.0216-.376-.332-.376-.31 0-.668.169-.796.376-.128.207.0216.376.332.376.31 0 .668-.169.796-.376zm-92-.603c-.125-.125-.449-.138-.721-.0297-.3.12-.211.209.227.227.396.0163.618-.0725.493-.197zm8.92-2.06c-.121-.196-.38-.257-.576-.136-.196.121-.257.38-.136.576.121.196.38.257.576.136.196-.121.257-.38.136-.576zm2.09-2.39c0-.0912-.169-.27-.376-.398-.207-.128-.376-.0532-.376.166 0 .219.169.398.376.398s.376-.0746.376-.166zm75.9-.586c0-.207-.0746-.376-.166-.376-.0911 0-.27.169-.398.376-.128.207-.0533.376.166.376.219 0 .398-.169.398-.376zm-76.3-.94c.508-.612.386-.689-.533-.336-.327.125-.595.379-.595.564 0 .52.609.397 1.13-.228zm87.2-2.82c0-.207-.169-.376-.376-.376-.207 0-.376.169-.376.376 0 .207.169.376.376.376.207 0 .376-.169.376-.376zm-87.9-1.99c-.483-.482-.972-.11-.615.468.138.224.424.301.634.171.257-.159.25-.369-.0196-.639zm-7.14-4.51c-.482-.482-.972-.11-.615.468.138.224.424.301.634.171.257-.159.25-.369-.0196-.639zm78.9-4.78c0-.207-.169-.376-.376-.376-.207 0-.376.169-.376.376 0 .207.169.376.376.376.207 0 .376-.169.376-.376zm-79.3-2.76c0-.791-1.26-1.76-1.83-1.4-.389.24-.405.487-.0722 1.11.47.879 1.91 1.1 1.91.294zm14.7-1.19c0-.31-.244-.564-.542-.564-.628 0-1.05.537-.701.887.449.449 1.24.243 1.24-.323zm57-2.09c.346-.56-.0553-.864-.775-.588-.332.127-.499.402-.37.61.305.493.833.483 1.14-.0224zm-83.3-2.04c0-.31-.169-.564-.376-.564-.207 0-.376.254-.376.564 0 .31.169.564.376.564.207 0 .376-.254.376-.564zm82.3-2.37c.23-.429.232-.878.007-1.22-.303-.461-.437-.438-.888.151-.531.694-.412 1.75.196 1.75.177 0 .486-.305.685-.678zm-41.3-2.14c0-.263-.231-.67-.514-.904-.756-.627-1.65.481-1.01 1.25.507.611 1.52.379 1.52-.348zm11.3-2.18c-.0466-.449-.562-.362-.724.122-.0827.248.0526.383.301.301.248-.0827.438-.273.423-.423zm-6.04-3.47c0-.31-.159-.564-.354-.564-.474 0-.813.587-.513.887.423.423.867.258.867-.323zm-10.5-1.69c0-.207-.0745-.376-.166-.376-.0911 0-.27.169-.398.376-.128.207-.0533.376.166.376.219 0 .398-.169.398-.376zm11-4.23c.519-.828-.0871-1.92-1.15-2.08-.945-.142-1.71 1.37-1.18 2.32.449.802 1.77.67 2.33-.234zm-377 141c-1.5-1.6-2.72-3.11-2.73-3.35-.004-.248-.281-.606-.62-.796-.67-.375-.394-1.2.402-1.2.728 0 4.88 1.37 5.9 1.94 2.2 1.24 3.23 3.86 2.04 5.18-1.41 1.56-2.1 1.32-5-1.77zm255 1.16c-.511-.349-1.04-.815-1.18-1.03-.137-.219-.583-.783-.991-1.25-.408-.47-1.14-1.44-1.63-2.16-.489-.718-1.02-1.31-1.17-1.31-.155-.001-.282-.323-.282-.714 0-.813.82-1.24 1.79-.934.976.312 2.51 1.05 2.73 1.31.103.125.826.527 1.61.893 2.45 1.15 3.73 3.83 2.53 5.27-.623.75-2.24.717-3.39-.0701zm-248-5.13c-.273-.276-1.4-1.54-2.5-2.8-1.1-1.27-2.31-2.4-2.69-2.52-.831-.264-1.17-1.02-.757-1.69.248-.402.74-.406 2.68-.025 4.96.976 8.23 5.08 5.63 7.06-.798.608-1.75.6-2.36-.0186zm312-5.85c0-.184-.211-.313-.47-.288-2.13.211-5.45-1.11-7.2-2.86-.321-.321-.714-.642-.873-.712-1.16-.511-5.35-7.35-6.3-10.3-.335-1.03-.758-2.22-.94-2.63-.313-.714-.789-2.26-2.14-6.95-.327-1.14-.742-2.36-.923-2.72-.181-.359-.329-.904-.329-1.21 0-.307-.363-1.37-.807-2.35-1.08-2.41-1.31-3-1.97-5.02-1.52-4.71-4.96-9.84-9.96-14.9-4.83-4.87-8-6.09-16.4-6.33-4.05-.117-7.84.452-9.99 1.5-1.53.742-3.48 3.47-3.92 5.46-.453 2.06-.288 18.5.232 23.1.258 2.27.481 5.02.496 6.1.0222 1.63.169 2.04.866 2.41.462.247.925.718 1.03 1.05.233.729 2.58 3.16 4.67 4.85 1.66 1.34 2 2.61.942 3.49-1.06.882-2.09.918-9.36.322-8-.656-11.9-.594-15.4.243-.808.195-1.17.104-1.43-.361-.311-.556-.409-.561-.917-.0532-.804.804-3.26.732-4.03-.118-1.08-1.19-.762-2.17 1.09-3.42.941-.635 1.8-1.15 1.91-1.15.377 0 3.13-2.07 3.13-2.35.015-.543 1.7-2.9 2.08-2.9.242-.003.421-4.42.5-12.3.0677-6.77.207-13.2.31-14.2.685-6.87-.341-9.48-3.85-9.8-2.78-.258-4.79.909-6.82 3.96-1.79 2.69-2.15 3.01-3.41 3.02-.662.0047-1.03-.372-1.57-1.59-.616-1.4-1.28-5.85-1.2-7.99.0162-.414.0304-1.88.0316-3.27.004-2.96.752-5.02 2.04-5.61 1.11-.507 2.07.107 3.82 2.45 2.32 3.11 5.18 4.02 8.06 2.57 1.73-.874 2.59-2.47 2.89-5.39.151-1.45.473-2.57.81-2.82.324-.239.437-.611.27-.882-.386-.624-.428-10.6-.047-11.2.178-.289.0624-.66-.289-.926-.512-.388-.545-1.14-.259-5.9.593-9.87-.385-16.3-2.85-18.7-.477-.467-.78-1.07-.675-1.35.256-.668-.809-1.51-1.55-1.23-.659.253-2.3-.649-3.22-1.77-1.27-1.54.235-2.88 3.24-2.9 1.88-.0097 2.06-.0045 7.33.202 2.38.0935 4.52.174 4.77.179.243.0051.52.305.614.667.164.627.174.627.216 0 .0241-.362.255-.671.513-.687.258-.0158.808-.108 1.22-.205 2.37-.556 9.88-1.27 12.8-1.23 1.89.0304 3.62-.0614 3.85-.204.231-.143.42-.122.42.0449.00027.167 2.04.304 4.54.304 7.81 0 13.8.53 15.6 1.38.884.415 1.76.659 1.95.541.519-.321 3.75.879 5.9 2.19 3.1 1.89 3.91 2.53 6.71 5.3 3.76 3.72 5.22 6.87 6.51 14.1.13.724.2 2.74.156 4.48-.0614 2.41-.225 3.27-.684 3.61-.427.312-.477.519-.17.709.238.147.433.542.433.877 0 .902-3.22 7.28-4.22 8.37-.477.517-1.42 1.8-2.09 2.86-.672 1.06-2.23 2.88-3.46 4.06-2.97 2.83-3.38 3.49-3.38 5.32 0 2.86 3.08 5.59 8.23 7.3 3.91 1.3 4.15 1.58 4.17 4.89.007 1.55-.137 3.34-.32 3.98-.208.725-.188 1.41.0526 1.84.296.53.227.802-.304 1.19-.592.433-.603.503-.0777.503.422 0 .602.319.582 1.03-.0155.569.258 2.64.607 4.6 1.31 7.36 2.44 13.8 2.65 15 .555 3.33.47 2.9 1.74 8.83.221 1.03.582 2.39.802 3.01.712 2 2.93 6.53 3.31 6.77.486.301.482 2.44-.007 2.44-.207 0-.376-.15-.376-.334zm-62.2-9.4c.113-.183-.0308-.53-.32-.77-.586-.486-1.19.0725-.781.727.288.465.827.486 1.1.0426zm-17.5-.794c0-.207-.159-.376-.354-.376-.195 0-.458.169-.586.376-.128.207.0312.376.354.376.322 0 .586-.169.586-.376zm10.7-2.26c.128-.207-.0312-.376-.354-.376-.322 0-.586.169-.586.376s.159.376.354.376c.195 0 .458-.169.586-.376zm-3.05-3.68c.102-.165.0462-.525-.124-.8-.4-.648-1.18-.175-.9.548.231.603.731.726 1.02.252zm5.12-2.33c0-.207-.169-.376-.376-.376-.207 0-.376.169-.376.376s.169.376.376.376c.207 0 .376-.169.376-.376zm-4.51-.376c0-.207-.0746-.376-.166-.376-.0912 0-.27.169-.398.376-.128.207-.0532.376.166.376.219 0 .398-.169.398-.376zm-3.01-.774c0-.195-.254-.354-.564-.354-.581 0-.747.444-.323.867.3.3.887-.0392.887-.513zm.376-1.7c0-.327-.201-.528-.446-.446-.697.232-.813 1.04-.149 1.04.327 0 .595-.268.595-.595zm4.98-2.27c1.63-.575-.0457-3.06-1.77-2.63-.692.174-.955.489-.955 1.15 0 1.04 1.01 2.22 1.64 1.92.234-.112.722-.309 1.08-.437zm61.6-.144c.426-.796.152-.956-.706-.412-.285.18-.402.516-.26.746.358.58.504.53.966-.334zm-59.4-5.07c-.0293-.558-.87-.455-1.07.13-.105.316.0664.457.458.376.345-.0714.618-.299.607-.506zm3.74-2.3c0-.0813-.348-.148-.774-.148-.426 0-.674.162-.552.359.201.325 1.33.145 1.33-.212zm52.6-.367c0-.664-.809-.548-1.04.149-.0818.246.119.446.446.446.327 0 .595-.268.595-.595zm-56-11.4c0-.207-.169-.376-.376-.376-.207 0-.376.169-.376.376s.169.376.376.376c.207 0 .376-.169.376-.376zm-6.39-1.07c0-.489-.447-.815-.81-.59-.389.24-.0536.904.457.904.195 0 .354-.141.354-.313zm.622-9.66c.284-.739-.052-1.08-.788-.796-.33.127-.48.465-.352.798.285.743.854.742 1.14-.002zm50-2.71c.0918-.276-.167-.47-.627-.47-.462 0-.783.243-.783.591 0 .691 1.17.59 1.41-.122zm-49.5-1.09c0-.708-1.07-1.1-1.59-.578-.296.296-.281.565.0527.967.537.647 1.54.394 1.54-.39zm32.3-1.2c0-.529-.423-.773-.974-.561-.289.111-.431.353-.317.538.262.425 1.29.443 1.29.0233zm-6.39-1.76c3.71-.482 4.5-.601 6.58-.989 1.24-.231 3.15-.643 4.24-.915 2.12-.529 5.72-2.32 5.72-2.85 0-.174.227-.316.504-.316.602 0 3.43-2.67 4.79-4.51 1.48-2.02 3.58-6.74 3.93-8.83.463-2.8.497-3.11.715-6.55.118-1.87.387-3.29.655-3.45.329-.203.236-.471-.334-.965-.434-.376-1.08-1.61-1.44-2.75-.686-2.18-2.09-4.83-3.36-6.36-2.92-3.51-7.34-8.03-9.07-9.26-2.17-1.55-4.84-2.11-12.7-2.64-4-.27-7.95.393-9.22 1.55-.335.303-.732.552-.882.552-.649 0-2.95 1.88-4.17 3.41-1.77 2.22-3.39 7.64-3.3 11.1.25 9.07.795 24 .878 24 .0169.0111.107.485.201 1.05.106.643 0 1.03-.277 1.03-.282 0-.217.254.175.687.342.378.622.892.622 1.14 0 .986 3.1 4.94 3.87 4.94.187 0 .872.239 1.52.53.651.292 1.44.613 1.75.714.59.192 6.38-.0171 8.65-.312zm-24.6-.213c.139-.225.0573-.604-.181-.843-.328-.328-.516-.301-.769.109-.358.58-.178 1.14.367 1.14.182 0 .445-.184.584-.409zm-16.4-.719c0-.207-.0746-.376-.166-.376-.0912 0-.27.169-.398.376-.128.207-.0532.376.166.376.219 0 .398-.169.398-.376zm20.3-4.51c0-.414.197-.752.439-.752.241 0 .34-.0983.22-.218-.12-.12-.571-.0296-1 .201-.904.484-1.05 1.52-.22 1.52.313 0 .564-.334.564-.752zm-1.88-2.26c0-.207-.264-.376-.586-.376-.322 0-.482.169-.354.376.128.207.392.376.586.376.195 0 .354-.169.354-.376zm3.38-17.1c0-.31-.159-.564-.354-.564-.474 0-.814.587-.513.887.423.423.867.258.867-.323zm54.1-4.63c-.131-.681-1.14-1.02-2.03-.675-.482.185-.473.337.0607 1.15.507.774.745.87 1.35.545.405-.217.682-.677.615-1.02zm.0756-5.13c0-.0912-.169-.27-.376-.398-.207-.128-.376-.0532-.376.166 0 .219.169.398.376.398.207 0 .376-.0746.376-.166zm-8.65-2.3c0-.322-.169-.482-.376-.354-.207.128-.376.392-.376.586s.169.354.376.354c.207 0 .376-.264.376-.586zm4.89-5.05c0-.207-.0745-.376-.166-.376-.0912 0-.27.169-.398.376-.128.207-.0533.376.166.376.219 0 .398-.169.398-.376zm-1.98-1.17c.517-.517.209-1.46-.477-1.46-.675 0-.974.553-.695 1.28.271.705.594.754 1.17.176zm-2.15-.12c0-.0912-.169-.27-.376-.398-.207-.128-.376-.0532-.376.166 0 .219.169.398.376.398.207 0 .376-.0746.376-.166zm-56-.962c0-.207-.169-.376-.376-.376s-.376.169-.376.376c0 .207.169.376.376.376s.376-.169.376-.376zm6.98-.588c-.323-.323-.761-.481-.973-.35-.569.352-.0661.938.804.938.686 0 .702-.0547.169-.588zm.215-3.74c0-.196-.182-.418-.404-.492-.222-.0741-.404.147-.404.492s.182.566.404.492c.222-.0741.404-.295.404-.492zm-10.6-.94c0-.207-.169-.376-.376-.376-.207 0-.376.169-.376.376 0 .207.169.376.376.376.207 0 .376-.169.376-.376zm20.7-2.84c0-.322-.169-.482-.376-.354-.207.128-.376.392-.376.586 0 .195.169.354.376.354.207 0 .376-.264.376-.586zm19.5-.188c0-.195-.254-.354-.564-.354-.581 0-.747.444-.323.867.3.3.887-.0392.887-.513zm-264 112c-4.03-1.58-6.51-4.18-9.39-9.86-2.88-5.69-3.12-6.32-3.09-8.3.0199-1.51-.0872-1.79-.684-1.79-.389 0-.623-.137-.519-.305.197-.318-1.45-6.17-2.05-7.3-.191-.359-.348-.911-.348-1.23 0-.316-.149-.868-.332-1.23-.183-.359-.512-1.08-.731-1.59-.22-.517-.78-1.79-1.25-2.82-.465-1.03-.807-2.02-.759-2.2.048-.177-.0977-.544-.324-.816-.509-.613-1.87-4.29-1.87-5.06-.007-1.05-1.78-4.32-3.06-5.64-2.49-2.57-6.68-5.25-8.23-5.26-.32-.002-.743-.154-.94-.338-.972-.91-5.14-1.64-10.1-1.78-5.54-.151-9.36.298-10.4 1.22-.339.304-.973.58-1.41.613-.437.0329-.794.252-.794.486s-.339.817-.753 1.29c-1.43 1.65-1.68 3.53-1.67 12.6.0114 10 .458 20.2.94 21.5.184.484.25.879.146.879-.104 0 .0887.55.427 1.22.776 1.54 2.77 3.67 3.44 3.67.833 0 2.87 1.15 3.56 2.01 1.54 1.91.268 3.05-3.73 3.33-1.66.118-2.86.038-3.1-.208-.259-.259-.399-.265-.399-.0172 0 .606-20 .464-20.8-.147-.473-.393-.616-.381-.787.0648-.261.679-1.49.4-2.33-.532-1.07-1.18-.553-2.28 1.68-3.63 2.4-1.44 5.65-4.43 5.65-5.2 0-.294.248-1.26.55-2.16.352-1.04.628-3.92.764-8 .118-3.51.295-7.56.394-9.01.0992-1.45.22-5.65.269-9.33l.0891-6.7-.94-.509c-.517-.28-1.53-.79-2.26-1.13s-1.62-.785-1.98-.979c-.486-.257-.726-.198-.886.22-.121.315-.516.572-.878.572-.765 0-4.15 2.86-4.15 3.51-.00038.241-.641 1.18-1.42 2.09-1.11 1.28-1.59 1.59-2.19 1.4-1.63-.518-1.84-1.71-1.72-9.93.0616-4.3.28-8.02.495-8.42.279-.521.709-.686 1.57-.602.904.0887 1.47.513 2.4 1.81 1.87 2.59 3.11 3.67 4.6 3.97 4.43.911 6.42-1.22 7.18-7.67.591-5.04.745-5.7 1.33-5.7.297 0 .646-.423.776-.94.177-.707.0219-1.11-.626-1.64-1.22-.986-1.48-4.04-1.24-14.5l.194-8.65-1.16-3.37c-1.28-3.72-2.26-4.92-5.47-6.64-2.42-1.3-2.81-1.91-2.06-3.24.552-.985.722-1.04 3.85-1.14 3.37-.112 6.48.432 6.08 1.07-.122.197-.0424.358.177.358.219 0 .398-.14.398-.311 0-.171 1.4-.346 3.1-.388 1.71-.0423 4.2-.215 5.54-.384s2.71-.171 3.04-.0052c.33.166.757.145.949-.0461.192-.192 2.21-.603 4.47-.915 5.06-.695 21.3-.601 22.7.131.463.248 1.02.342 1.24.208.505-.312 5.02.508 6.73 1.22 4.13 1.73 6.67 3.07 7.82 4.15.717.672 1.41 1.22 1.54 1.22.13 0 1.14.888 2.24 1.97 4.51 4.44 6.63 10.3 6.63 18.3 0 4.08-.122 5.02-.924 7.14-1.14 3.02-2.53 5.11-3.28 4.96-.417-.087-.5.0873-.317.664.28.884-.803 2.89-2.04 3.77-.426.304-.775.783-.775 1.06 0 .281-1.23 1.72-2.73 3.21-1.5 1.48-2.94 3.17-3.19 3.74-.252.574-.702 1.14-1 1.25-.658.252-.346 1.27.389 1.27.288 0 .524.249.524.554 0 .845 3.11 3.77 4.95 4.65.897.431 2.58 1.05 3.73 1.37 2.82.783 3.36 1.25 3.61 3.11.168 1.25.0825 1.63-.41 1.82-.412.158-.503.382-.269.665.194.234.4 2.54.458 5.12.0578 2.58.224 4.95.368 5.26.145.31.356 1.49.469 2.63.192 1.93.548 3.97 2.01 11.5.727 3.74 1.07 5.68 1.6 8.96.226 1.41.579 2.88.784 3.26.205.384.373 1.03.373 1.43 0 .948 1.21 3.65 2.88 6.47.734 1.23 1.24 2.5 1.12 2.81-.296.772-2.25.701-4.46-.161zm-4.43-6.96c0-.0912-.169-.27-.376-.398s-.376-.0532-.376.166c0 .219.169.398.376.398s.376-.0746.376-.166zm2.05-.184c.278-.45-.429-.895-.93-.586-.42.26-.144.936.382.936.182 0 .429-.157.548-.35zm-58.1-2.38c-.066-.465-.289-.846-.496-.846s-.43.381-.496.846c-.0827.582.0721.846.496.846.424 0 .579-.264.496-.846zm-8.2.094c0-.207-.179-.376-.398-.376-.219 0-.294.169-.166.376.128.207.307.376.398.376.0912 0 .166-.169.166-.376zm8.33-8.08c0-.196-.182-.418-.404-.492-.222-.0741-.404.147-.404.492s.182.566.404.492c.222-.0741.404-.295.404-.492zm-2.69-5.64c0-.31-.169-.564-.376-.564s-.376.254-.376.564.169.564.376.564.376-.254.376-.564zm49.4-17.5c.278-.45-.429-.895-.93-.586-.42.26-.144.936.382.936.182 0 .429-.157.548-.35zm-52.4-9.59c0-.0912-.169-.27-.376-.398-.207-.128-.376-.0532-.376.166 0 .219.169.398.376.398.207 0 .376-.0746.376-.166zm1.13-2.65c0-.31-.159-.564-.354-.564-.474 0-.814.587-.513.887.423.423.867.258.867-.323zm32-3.88c0-.489-.447-.815-.81-.59-.389.24-.0536.904.457.904.195 0 .354-.141.354-.313zm-7.39-3.11c1.07-.211 2.53-.46 3.26-.552 2.32-.296 5.44-.984 5.83-1.28.207-.16.968-.416 1.69-.568.724-.152 2.04-.763 2.93-1.36.889-.596 1.75-1.08 1.92-1.08.374 0 4.55-4.48 4.55-4.88 0-.16.237-.487.528-.728.74-.614 2.29-3.96 3-6.46.328-1.16.702-3.78.832-5.83.505-7.96-2.15-14.6-7.54-18.9-1.14-.91-2.08-1.8-2.08-1.97 0-.176-.236-.32-.524-.32-.288 0-.621-.254-.74-.564-.119-.31-.455-.564-.746-.564s-.739-.252-.994-.56c-.255-.308-.595-.479-.755-.38-.16.0988-.5-.0722-.755-.38-.255-.308-.703-.56-.994-.56-.291 0-.627-.254-.746-.564-.119-.31-.615-.564-1.1-.564s-1.44-.238-2.12-.53c-3.14-1.35-5.09-1.67-9.39-1.54-3.86.113-4.49.231-6.15 1.16-3.68 2.05-3.88 2.28-5.73 6.55-.905 2.09-1.2 3.46-1.23 5.64-.0117.93-.203 3.28-.424 5.22-.337 2.95-.52 3.56-1.11 3.71-.525.137-.645.39-.46.972.137.432.291 3.33.341 6.44.126 7.79.77 14.4 1.56 16 1.12 2.25 4.26 4.48 6.69 4.76.834.0959 1.6.265 1.71.377.259.273 6.36-.195 8.78-.673zm10.8-.17c0-.322-.169-.482-.376-.354-.207.128-.376.392-.376.586 0 .195.169.354.376.354s.376-.264.376-.586zm-56.4-.73c0-.31-.159-.564-.354-.564-.474 0-.814.587-.513.887.423.423.867.258.867-.323zm66.2-2.44c0-.207-.169-.376-.376-.376s-.376.169-.376.376.169.376.376.376.376-.169.376-.376zm-39.1-.564c0-.31-.254-.564-.564-.564-.31 0-.564.254-.564.564s.254.564.564.564c.31 0 .564-.254.564-.564zm35.7.188c0-.207-.169-.376-.376-.376-.207 0-.376.169-.376.376 0 .207.169.376.376.376.207 0 .376-.169.376-.376zm-45.6-4.19c.253-.409-.767-1.45-1.42-1.45-.459 0-.365.917.147 1.43.566.566.934.571 1.28.0182zm6.64-9.57c.366-.366-.136-1.28-.703-1.28-.288 0-.524.226-.524.501 0 .833.718 1.29 1.23.778zm-6.01-5.09c-.236-.236-.701-.324-1.03-.196-.493.189-.526.381-.177 1.03.394.736.478.752 1.03.196.453-.453.497-.713.177-1.03zm56.8-1.81c.119-.192.0444-.456-.166-.586-.21-.13-.382.0276-.382.35 0 .66.226.758.548.236zm3.21-2.28c0-.207-.179-.376-.398-.376-.219 0-.294.169-.166.376.128.207.307.376.398.376.0912 0 .166-.169.166-.376zm-3.75-1.32c.65-.783.171-1.16-.554-.438-.32.32-.582.678-.582.797 0 .417.666.207 1.14-.358zm5.63-.931c0-.207-.169-.376-.376-.376-.207 0-.376.169-.376.376 0 .207.169.376.376.376.207 0 .376-.169.376-.376zm-53-4.14c0-.207-.0746-.376-.166-.376-.0912 0-.27.169-.398.376-.128.207-.0532.376.166.376.219 0 .398-.169.398-.376zm43.8-.408c-.121-.196-.38-.257-.576-.136-.196.121-.257.38-.136.576s.38.257.576.136c.196-.121.257-.38.136-.576zm-52.4-.72c0-.207-.169-.376-.376-.376-.207 0-.376.169-.376.376 0 .207.169.376.376.376.207 0 .376-.169.376-.376zm56.8-5.43c0-.0912-.169-.27-.376-.398-.207-.128-.376-.0532-.376.166 0 .219.169.398.376.398.207 0 .376-.0746.376-.166zm-8.83-5.47c.128-.207.0532-.376-.166-.376-.219 0-.398.169-.398.376 0 .207.0746.376.166.376.0912 0 .27-.169.398-.376zm-39.3-3.95c0-.31-.254-.564-.564-.564-.587 0-.746.445-.313.877.433.433.877.274.877-.313zm26.4-2.93c-.482-.482-.972-.11-.615.468.138.224.424.301.634.171.257-.159.25-.369-.0197-.639zm-40.6.111c0-.207-.179-.376-.398-.376-.219 0-.294.169-.166.376.128.207.307.376.398.376.0912 0 .166-.169.166-.376zm35-.376c0-.207-.0746-.376-.166-.376-.0912 0-.27.169-.398.376-.128.207-.0532.376.166.376.219 0 .398-.169.398-.376zm177 107c-.724-.158-3.43-.658-6.01-1.11-3.33-.585-4.87-1.02-5.3-1.51-.36-.41-.743-.552-.945-.35-.313.313-3.39-.52-7.49-2.03-1.44-.531-6.05-2.84-8.03-4.02-1.35-.809-2.26-1.76-1.97-2.08.138-.154.0252-.149-.25.01-1.51.872-9.43-7.16-12.5-12.6-3.68-6.64-5.5-11.2-6.21-15.7-.825-5.18-1.22-9.93-.9-10.8.169-.458.163-.922-.0146-1.03-.177-.11-.191-.784-.0293-1.5.161-.714.204-1.39.0943-1.5-.214-.214.362-4.2 1.31-9.05 1.56-8 5.86-17.5 8.56-19 .521-.279.796-.69.675-1.01-.113-.295.133-.908.547-1.36.414-.455.949-1.21 1.19-1.67.241-.468.787-.846 1.22-.846.654 0 .707-.0938.318-.562-.544-.656-.331-1.04 3.09-5.53 2.69-3.53 6.86-7.42 8.25-7.7.567-.113.995-.373.951-.577-.0891-.417 5.66-4.04 6.43-4.05.269-.0026 1.11-.427 1.87-.944.761-.517 1.78-.94 2.27-.94.489 0 1.34-.237 1.89-.527.549-.29 2.1-.817 3.44-1.17 1.34-.354 2.7-.735 3.01-.846.601-.215.711-.227 6.77-.728 4.34-.359 10.8-.343 11.2.0285.13.13.79.236 1.47.236.677 0 1.32.15 1.44.334.114.184.758.424 1.43.533s2.58.465 4.23.791c1.65.325 3.85.694 4.89.819 1.03.125 3.08.634 4.54 1.13 1.46.497 3.03.903 3.48.903.45 0 .818.142.818.316s1.03.629 2.29 1.01c1.26.382 3.04 1.17 3.96 1.75.916.581 1.79 1.06 1.94 1.06.295 0 4.96 4.41 4.96 4.69 0 .201 1.12 1.44 4.05 4.46.77.795 1.41 1.56 1.41 1.69.038.7 1.04 1.99 1.26 1.63.138-.224.416-.289.617-.145.661.473 2.62 3.61 3.33 5.34.383.93.846 2.03 1.03 2.44.79 1.79 2.21 6.41 2.21 7.19 0 .468.15.944.333 1.06.686.424.858 2.84.246 3.45-.697.697-.381 1.52.35.91.373-.31.536-.161.7.64 1.27 6.18 1.54 12.6.783 18.1-.648 4.73-.8 5.27-1.5 5.27-.642 0-.722.628-.107.833.493.164-.173 3.56-1.02 5.18-.269.517-.711 1.49-.983 2.16s-.749 1.22-1.06 1.23c-.376.004-.424.0983-.142.282.296.192.105.905-.626 2.34-.578 1.14-1.23 2.45-1.45 2.92-.221.47-.658.954-.972 1.07-.313.12-.57.447-.57.726 0 .545-1.4 2.75-2.36 3.7-.321.321-.642.717-.712.879-.211.489-3.56 3.1-3.97 3.1-.212 0-1.04.804-1.84 1.79-.8.982-2.17 2.51-3.05 3.39-.879.884-1.6 1.76-1.6 1.95 0 .399-4.29 3.77-4.79 3.77-.187 0-.327-.363-.31-.808.0165-.444-.207-.89-.496-.99-.417-.144-.482.146-.315 1.39.194 1.45.129 1.61-.789 1.96-.55.209-1.25.606-1.56.882-1.38 1.22-7.74 4.09-8.31 3.75-.151-.0934-.331-.0418-.401.115-.221.498-2.71 1.56-4.26 1.82-.827.139-1.71.418-1.97.621-.256.203-.742.263-1.08.132s-.84-.0511-1.11.176c-.273.227-1.14.502-1.93.612-2.36.33-14.5.401-15.9.0923zm5.26-2.23c0-.207-.0746-.376-.166-.376-.0912 0-.27.169-.398.376-.128.207-.0532.376.166.376.219 0 .398-.169.398-.376zm8.65-.376c0-.207-.254-.376-.564-.376s-.564.169-.564.376.254.376.564.376.564-.169.564-.376zm-17.3-2.8c0-.0912-.169-.27-.376-.398s-.376-.0532-.376.166c0 .219.169.398.376.398s.376-.0746.376-.166zm14.4-1.15c.0912.0912 2.27.199 4.84.239 3.29.0516 4.95-.0745 5.6-.424.51-.274 2.17-.714 3.69-.978 2.42-.42 6.22-2 9.69-4.03 2.52-1.47 8.83-7.62 10-9.75.354-.638.997-1.57 1.43-2.06s1.13-1.57 1.56-2.38c.424-.814.923-1.48 1.11-1.48.186 0 .338-.311.338-.691 0-.38.679-2.04 1.51-3.7 1.5-2.98 1.78-4.13 2.13-8.68.101-1.29.319-2.35.486-2.35.167 0 .398-.245.513-.545.142-.369.0282-.475-.351-.33-.456.175-.542-.126-.465-1.62.0973-1.87-2.02-18.1-2.86-21.9-.226-1.03-.692-3.41-1.38-7.03-.251-1.33-.74-2.61-1.14-2.96-.382-.346-.616-.756-.52-.912.0962-.156-.0769-.492-.385-.748-.308-.255-.56-.716-.56-1.02 0-.307-1.19-1.78-2.64-3.28-1.86-1.91-2.57-2.91-2.4-3.34.158-.412.0416-.62-.347-.62-.596 0-2.5-1.56-2.5-2.05 0-.147-.465-.739-1.03-1.32-.569-.576-1.64-1.7-2.38-2.51s-1.81-1.8-2.39-2.21c-.574-.414-1.74-1.28-2.6-1.92-.858-.64-2.04-1.41-2.63-1.72-.998-.52-1.03-.6-.446-1.18.344-.344.52-.795.391-1-.264-.427-1.44-.51-1.82-.129-.554.554-2.27.413-3.94-.324-1.77-.782-2.96-1.13-8.53-2.49-5.51-1.35-10.1-1.58-16.6-.834-3.49.397-8.03 1.42-8.58 1.94-.196.183-.737.334-1.2.334-.464 0-1.83.58-3.04 1.29-1.21.709-2.66 1.4-3.22 1.54-.558.14-1.01.47-1.01.732 0 .263-.465.684-1.03.937-2.39 1.06-10.6 11.8-10.6 13.8 0 .26-.151.473-.335.473s-.433.39-.553.868c-.12.477-.508 1.53-.862 2.35-.355.815-.607 1.63-.56 1.81.0465.179-.0985.88-.322 1.56-.562 1.7-.82 5.25-.744 10.2.0361 2.38-.126 4.79-.374 5.54-.451 1.37-.18 2.6.373 1.71.164-.265.472.724.719 2.31.238 1.53.588 3.45.777 4.28 1.12 4.86 1.61 6.81 1.81 7.14.124.203.255.626.291.94.243 2.11 3.68 10.9 4.39 11.2.155.0689.282.437.282.817s.412 1.18.915 1.78c.503.598 1.03 1.53 1.16 2.07.135.539.569 1.27.964 1.63.395.357.718.953.718 1.32 0 .792 4.32 5.99 6.27 7.53.742.59 1.75 1.47 2.23 1.96.486.486 1.94 1.54 3.24 2.33 1.3.796 2.58 1.67 2.85 1.94.273.269.646.488.829.488.183 0 1.14.475 2.13 1.06.991.581 2.9 1.36 4.25 1.73 1.34.369 3.17.985 4.05 1.37.883.384 2.83.795 4.32.913 1.49.118 2.77.379 2.84.579.0795.233.366.234.796.004.37-.198.747-.285.838-.194zm21.7-1.7c0-.207-.169-.376-.376-.376s-.376.169-.376.376.169.376.376.376.376-.169.376-.376zm-45.9-.376c0-.207-.169-.376-.376-.376-.207 0-.376.169-.376.376s.169.376.376.376c.207 0 .376-.169.376-.376zm7.71-1.13c-.182-.294-.398-.316-.649-.0655-.207.207-.253.575-.103.817.182.294.398.316.649.0655.207-.207.253-.575.103-.817zm-17.7-2.82c.146-.382-.0192-.564-.512-.564-.493 0-.658.182-.512.564.119.31.349.564.512.564.163 0 .393-.254.512-.564zm-5.02-2.23c0-.0912-.169-.27-.376-.398s-.376-.0532-.376.166c0 .219.169.398.376.398s.376-.0746.376-.166zm-4.14-4.74c0-.172-.184-.427-.409-.566-.522-.323-1.26.392-.937.911.267.432 1.35.155 1.35-.345zm-4.89-2.99c0-.207-.169-.376-.376-.376s-.376.169-.376.376.169.376.376.376.376-.169.376-.376zm-1.5-.94c0-1.08-.208-1.16-.967-.403-.759.759-.666 1.34.215 1.34.551 0 .752-.251.752-.94zm7.14-1.32c0-.207-.0746-.376-.166-.376-.0911 0-.27.169-.398.376-.128.207-.0532.376.166.376.219 0 .398-.169.398-.376zm-7.68-1.32c.696-.546.679-.568-.369-.47-.604.0564-1.17.314-1.25.572-.213.65.74.589 1.62-.102zm8.34-2.65c-.358-.358-1.08.222-.809.654.159.257.369.25.639-.0197.221-.221.298-.507.171-.634zm-7.63-3.2c-.121-.196-.38-.257-.576-.136-.196.121-.257.38-.136.576.121.196.38.257.576.136.196-.121.257-.38.136-.576zm-3.93-3.35c0-.207-.179-.376-.398-.376-.219 0-.294.169-.166.376.128.207.307.376.398.376.0912 0 .166-.169.166-.376zm11.7-.918c0-.0912-.169-.27-.376-.398-.207-.128-.376-.0532-.376.166 0 .219.169.398.376.398.207 0 .376-.0746.376-.166zm-11.3-.962c0-.207-.0746-.376-.166-.376-.0912 0-.27.169-.398.376s-.0532.376.166.376c.219 0 .398-.169.398-.376zm9.77-1.5c0-.207-.169-.376-.376-.376-.207 0-.376.169-.376.376s.169.376.376.376c.207 0 .376-.169.376-.376zm-4.14-.354c0-.508-.685-.86-1.13-.582-.21.13-.285.394-.166.586.282.457 1.3.454 1.3-.004zm-9.4-9.61c0-.31-.169-.564-.376-.564s-.376.254-.376.564c0 .31.169.564.376.564s.376-.254.376-.564zm11.3-1.93c0-.285-.0707-.518-.157-.518-.0865 0-.403-.0943-.703-.21-.714-.274-1.16.901-.6 1.58.498.6 1.46.0398 1.46-.85zm-5.64.422c0-.31-.169-.564-.376-.564-.207 0-.376.254-.376.564s.169.564.376.564c.207 0 .376-.254.376-.564zm-6.69-5.53c-.351-.351-.451-.251-.451.451s.1.802.451.451c.351-.351.351-.551 0-.902zm10.1-3.12c0-.31-.254-.564-.564-.564s-.564.254-.564.564c0 .31.254.564.564.564s.564-.254.564-.564zm89.8-.188c0-.207-.169-.376-.376-.376s-.376.169-.376.376.169.376.376.376.376-.169.376-.376zm-90.6-5.26c0-.207-.0746-.376-.166-.376-.0912 0-.27.169-.398.376-.128.207-.0532.376.166.376.219 0 .398-.169.398-.376zm94.4-3.38c0-.207-.169-.376-.376-.376-.207 0-.376.169-.376.376s.169.376.376.376c.207 0 .376-.169.376-.376zm-96.6-2.44c0-.31-.151-.564-.336-.564-.185 0-.433.254-.552.564-.132.343 0 .564.336.564.304 0 .552-.254.552-.564zm-1.88-.94c0-.207-.169-.376-.376-.376s-.376.169-.376.376c0 .207.169.376.376.376s.376-.169.376-.376zm97.4 0c0-.207-.423-.376-.94-.376-.517 0-.94.169-.94.376 0 .207.423.376.94.376.517 0 .94-.169.94-.376zm-2.73-7.42c.206-.617-.972-1.06-1.48-.553-.216.216-.274.586-.128.823.332.537 1.4.359 1.61-.27zm1.22-2.01c0-.916-.878-.787-1.06.156-.072.371.12.627.47.627.349 0 .591-.321.591-.783zm-4.51-.555c0-.322-.172-.48-.382-.35-.21.13-.285.394-.166.586.322.521.548.424.548-.236zm3.15-.658c.332-.542.273-.787-.294-1.21-.88-.654-2.11-.113-2.11.929 0 1.25 1.69 1.45 2.4.278zm4.36-1.01c0-.207-.169-.376-.376-.376s-.376.169-.376.376c0 .207.169.376.376.376s.376-.169.376-.376zm-92.9-1.83c0-.181-.239-.528-.53-.77-.589-.489-1.19.0666-.785.724.286.463 1.32.499 1.32.046zm90.6-2.3c0-.207-.159-.376-.354-.376-.195 0-.458.169-.586.376-.128.207.0312.376.354.376.322 0 .586-.169.586-.376zm-11.7-3.38c0-.207-.169-.376-.376-.376-.207 0-.376.169-.376.376s.169.376.376.376c.207 0 .376-.169.376-.376zm6.15-3.96c-.223-.581-.604-.706-.986-.324-.29.29.576 1.25.932 1.04.146-.0883.17-.409.0538-.712zm-5.96-.181c0-.307-.381-.613-.846-.679-.823-.117-1.17.606-.582 1.2.438.438 1.43.0779 1.43-.519zm-5.83-2.44c0-.31-.169-.564-.376-.564-.207 0-.376.254-.376.564 0 .31.169.564.376.564.207 0 .376-.254.376-.564zm-24.5-10.3c.094-.282-.047-.423-.329-.329-.271.0904-.567.386-.658.658-.094.282.047.423.329.329.271-.0905.567-.386.658-.658zm-10.7-1.75c.301-.784-.0327-1.28-.86-1.28-1.03 0-1.23.436-.547 1.19.765.845 1.11.867 1.41.0906zm-363 107c-.618-.52-1.39-1.57-1.72-2.32-.328-.758-1.09-2.48-1.68-3.82-1.42-3.2-2.74-6.66-3.88-10.2-.506-1.55-1.09-3.24-1.3-3.76-.212-.516-1.01-2.63-1.77-4.7-.76-2.07-1.86-4.77-2.44-6.01-2.18-4.62-2.3-5.07-1.61-5.76.572-.572.554-.631-.237-.818-.623-.147-1.06-.759-1.61-2.26-.417-1.13-.885-2.23-1.04-2.44-.821-1.09-5.26-10.1-5.26-10.7 0-.373-.127-.805-.282-.959-.465-.465-1.3-4.05-1.36-5.87-.0436-1.2-.309-1.95-.9-2.54-.461-.461-.838-1.18-.838-1.59 0-.46-.256-.758-.658-.766-1.37-.0305-5.68-7.17-7.13-11.8-.518-1.65-1.12-3.68-1.34-4.51-.219-.827-1.07-2.88-1.89-4.57-1.29-2.65-1.44-3.21-1.1-4.16.322-.925.271-1.17-.321-1.54-.388-.242-.924-.44-1.19-.44-.267 0-1.16-.97-1.98-2.16-1.71-2.47-4.63-5.42-6.61-6.69-2.38-1.52-2.2-4.48.343-5.51 1.37-.555 6.31-.523 10.3.0653 1.77.265 4.7.404 6.5.309 2.62-.137 3.24-.072 3.07.325-.111.273-.305.751-.431 1.06-.159.394.008.564.557.564.52 0 .863-.312 1.02-.924.264-1.05 1.06-1.82 1.98-1.92.345-.0365 1.66-.193 2.93-.347 1.58-.193 2.38-.148 2.56.144.144.234.414.332.599.217.449-.277 1.87 1.17 1.87 1.91 0 1.04-1.04 2.62-2.78 4.23-1.96 1.81-2.59 2.89-3.18 5.53-.455 2.01-.471 5.02-.0305 5.64.147.207.394.962.547 1.68.154.717.416 1.56.584 1.88.549 1.04 2.21 5.81 2.46 7.05.132.667.473 1.41.758 1.64.285.237.519.795.519 1.24 0 .446.262 1.18.581 1.64.639.912 1.33 2.8 3.62 9.86.838 2.58 1.76 5.23 2.04 5.88.286.651.52 1.45.52 1.77s.313 1.15.696 1.83c.653 1.16 1.65 4.42 2.28 7.45.153.735.561 1.9.906 2.6.345.692.628 1.37.628 1.51 0 .139.765 1.09 1.7 2.1.935 1.02 2.11 2.63 2.61 3.59.5.955 1.35 2.39 1.89 3.19.542.799 1.24 1.98 1.54 2.62.708 1.49 3.44 4.27 4.66 4.74 1.76.677 3.91.0368 5.6-1.66.85-.859 1.55-1.7 1.55-1.86 0-.166.296-.304.658-.307.553-.005.57-.0615.103-.357-.474-.299-.432-.517.282-1.48.46-.623.837-1.27.837-1.44 0-.171.555-1.66 1.23-3.3.679-1.65 1.48-3.74 1.77-4.65.295-.909.813-1.73 1.15-1.81.411-.108.561-.445.452-1.02-.213-1.11 1.43-4.71 2.16-4.72.484-.0115.487-.0619.0241-.355-.39-.247-.43-.479-.144-.84.218-.274.769-1.51 1.23-2.75.457-1.24 1.06-2.76 1.34-3.38 1.05-2.32 1.69-4.06 1.69-4.62 0-.32.226-.849.501-1.18.944-1.12 5.46-15.7 6.08-19.6.234-1.48.736-2.99 2.24-6.74 1.16-2.9 1.4-3.96 1.42-6.36.0372-3.5-.252-4.1-3.34-7.01-1.85-1.74-2.35-2.43-2.18-3.03.307-1.12 1.24-1.57 3.86-1.85 1.99-.218 2.32-.168 2.32.351 0 .908 1.06 1.14 1.87.401.798-.723.755-.72 6.77-.449 2.38.107 4.79.373 5.36.591 1.11.423 1.34 1.4.645 2.69-.611 1.14-1.21.884-.927-.401.265-1.21-.174-1.49-.92-.588-.327.395-.339.743-.0434 1.3.353.66.194.901-1.25 1.9-2.09 1.44-4.51 3.82-5.26 5.18-1.01 1.83-2.49 5.37-2.49 5.95 0 .307-.151.852-.335 1.21-.747 1.45-1.9 4.4-3.2 8.17-.357 1.03-1.12 2.89-1.71 4.14-1.93 4.11-2.65 5.81-2.65 6.23 0 .229-.327.875-.727 1.44-.4.561-.841 1.48-.981 2.03-.14.556-.405 1.01-.589 1.01-.184 0-.336.55-.337 1.22-.001.672-.251 1.7-.554 2.28-.303.582-.751 2.1-.994 3.38-.243 1.28-.755 3.01-1.14 3.85-.382.841-.695 1.71-.695 1.92 0 .217-.32 1.22-.71 2.23-.391 1.01-.928 2.6-1.19 3.53-.266.93-.623 1.85-.793 2.05-.171.196-.311.63-.311.963 0 .333-.338 1.31-.752 2.16-.414.856-.752 1.74-.752 1.96 0 .414-1.53 4.23-2.47 6.15-.287.589-.636 1.68-.775 2.42-.232 1.24-1.34 4.25-2.6 7.03-.279.62-1.3 2.9-2.26 5.07-.964 2.17-1.88 4.03-2.04 4.14-.159.103-.416.78-.571 1.5-.155.724-.629 1.99-1.05 2.82-1.54 3-1.77 3.51-1.77 3.92 0 .44-1.32 3.59-1.91 4.54-.191.31-.497.902-.682 1.32-1.06 2.37-3.76 3.06-5.68 1.45zm2.62-3.86c.293-.548.244-.87-.202-1.32-.733-.733-1.25-.752-1.52-.0555-.235.613.459 2.1.981 2.1.192 0 .524-.327.738-.726zm3.02.162c0-.31-.169-.564-.376-.564-.207 0-.376.254-.376.564s.169.564.376.564c.207 0 .376-.254.376-.564zm-7.1-8.19c-.482-.482-.972-.11-.615.468.138.224.424.301.634.171.257-.159.25-.369-.0197-.639zm1.52-2.33c0-.196-.182-.418-.404-.492-.222-.0741-.404.147-.404.492 0 .345.182.566.404.492.222-.0741.404-.295.404-.492zm3.23-.47c.23-.691-.914-.574-1.18.121-.158.412-.0376.554.398.47.344-.0667.696-.333.782-.591zm.0938-9.28c0-1.15-.522-1.5-1.13-.77-.369.445-.368.676.003 1.12.687.827 1.13.689 1.13-.354zm-7.21-3.62c-.0741-.222-.295-.404-.492-.404-.196 0-.418.182-.492.404-.0741.222.147.404.492.404.345 0 .566-.182.492-.404zm4.96.0282c0-.207-.169-.376-.376-.376s-.376.169-.376.376.169.376.376.376.376-.169.376-.376zm-7.97-.78c-.0741-.222-.295-.404-.492-.404s-.418.182-.492.404c-.0741.222.147.404.492.404s.566-.182.492-.404zm-2.18-9.77c0-.195-.169-.354-.376-.354-.207 0-.376.264-.376.586s.169.482.376.354c.207-.128.376-.392.376-.586zm-10.5-13.5c0-.207-.169-.376-.376-.376-.207 0-.376.169-.376.376 0 .207.169.376.376.376.207 0 .376-.169.376-.376zm2.8-7.12c.278-.45-.429-.895-.93-.586-.42.26-.144.936.382.936.182 0 .429-.157.548-.35zm.956-4.56c0-.195-.254-.354-.564-.354-.581 0-.747.444-.323.867.3.3.887-.0392.887-.513zm47.6-9.75c.128-.207-.0414-.376-.376-.376-.335 0-.504.169-.376.376.128.207.297.376.376.376.079 0 .248-.169.376-.376zm-60.2-7.5c-.132-1.18-.328-1.35-.957-.831-.282.234-.601.339-.707.232-.107-.107-.408.064-.669.379-.393.473-.369.573.134.573.335 0 .61.181.61.402s.381.347.846.281c.648-.093.822-.335.744-1.04zm2.95-10.8c.284-.748.258-1.08-.103-1.31-.773-.491-.948-.383-1.16.713-.347 1.82.623 2.28 1.26.597zm-6.04-2.78c0-.195-.169-.354-.376-.354-.207 0-.376.264-.376.586s.169.482.376.354c.207-.128.376-.392.376-.586zm-1.32-.73c.128-.207.0532-.376-.166-.376-.219 0-.398.169-.398.376 0 .207.0746.376.166.376.0912 0 .27-.169.398-.376zm-4.32-1.5c0-.207-.169-.376-.376-.376s-.376.169-.376.376c0 .207.169.376.376.376s.376-.169.376-.376zm8.18-3.83c-.232-.697-1.04-.813-1.04-.149 0 .327.268.595.595.595.327 0 .528-.201.446-.446zm7.92-2.94.592-.94-1.11.94c-.611.517-1.2 1-1.3 1.07-.103.0741.13.0741.519 0s.973-.558 1.3-1.07zm-26.6.586c0-.0912-.169-.27-.376-.398-.207-.128-.376-.0532-.376.166 0 .219.169.398.376.398s.376-.0746.376-.166zm156 102c-1.03-.135-5.21-.199-9.29-.142-5.27.0736-7.45-.0196-7.55-.323-.104-.31-.295-.301-.7.0327-.556.459-5.38.493-6.15.0435-.205-.12-6.12-.234-13.2-.255-7.03-.0203-13.3-.178-13.9-.35-2.61-.741-2.25-2.9.807-4.85 3.9-2.49 6.89-6.11 7.37-8.88.077-.453.24-1.08.363-1.39.177-.448.725-12.7.673-15-.007-.31-.0209-3.52-.0313-7.14-.0299-10.4-.75-12.4-4.65-12.7-1.52-.126-2.27.002-3.09.529-1.52.971-1.69 1.16-3.52 3.84-1.8 2.64-2.23 2.94-3.36 2.34-1.43-.766-1.59-1.71-1.65-9.59-.0584-8.21.0745-8.85 1.85-8.85.703 0 .894.201.894.94 0 .749.189.94.929.94.589 0 1.22.399 1.74 1.09.823 1.11 3.95 3.04 4.93 3.04.388 0 .495.32.376 1.13-.126.855-.0191 1.13.441 1.13.422 0 .607-.34.607-1.12 0-.875.201-1.17.918-1.35.505-.127 1.1-.12 1.32.015.219.135.397-.0253.397-.356 0-.331.321-.947.714-1.37.923-.991 1.11-2.72.648-6.08-.204-1.49-.34-4.82-.302-7.41.114-7.84.0498-16.7-.13-17.9-.0933-.62-.257-1.89-.365-2.82-.357-3.1-1.67-6.05-3.18-7.13-.423-.304-.769-.769-.769-1.03 0-.264-.161-.481-.359-.481-.452 0-2.13-1.66-2.64-2.61-.582-1.09-.462-2.46.273-3.12 1.6-1.43 9.95-1.61 10.9-.242.527.752 1.96.986 1.96.321 0-.261.973-.302 2.91-.124 3.48.319 7.34.318 13.4-.003 6.12-.322 20.3-.728 26.7-.765 4.38-.0259 5.6.0942 7.29.719 2.66.986 4.71 3.27 5.33 5.95 1.03 4.43.683 9.63-.76 11.5-.604.793-.853.875-1.71.564-.549-.201-1.26-.872-1.59-1.49-.325-.62-.733-1.38-.906-1.69-.173-.31-.657-1.19-1.07-1.96-.974-1.8-5.88-6.57-7.06-6.86-.497-.125-1.52-.613-2.28-1.08-3.22-2.01-14.3-2.94-19.2-1.63-2.53.673-6.01 2.17-6.01 2.58 0 .168-.194.305-.432.305-.534 0-2.95 2.45-2.95 2.99 0 .217-.151.395-.335.395-.184 0-.648.719-1.03 1.6-.718 1.65-.784 3.37-.999 26.2-.0543 5.76-.0428 5.85 1.06 8.01.747 1.47 1.74 2.67 3.01 3.65 1.63 1.26 2.39 1.55 5.29 2.05 3.91.675 12.9.654 12.9-.03.00067-.226.636-.733 1.41-1.13.775-.394 1.47-.844 1.53-.999.0689-.155.303-.282.521-.282.217 0 .753-.384 1.19-.853.437-.469 1.59-1.42 2.57-2.12 1.57-1.13 1.92-1.23 3.01-.919 1.09.312 1.28.566 1.62 2.2.216 1.02.286 2.79.156 3.93-.13 1.15-.176 3.85-.103 6.01.102 3-.005 4.22-.453 5.16-.504 1.06-1.54 2-2.21 2-.499 0-2.2-2.24-2.94-3.87-.513-1.13-.998-1.73-1.31-1.61-.27.104-1.46-.322-2.65-.945-5.14-2.7-15.3-3.39-20.8-1.43-1.25.442-2.82 2.26-4.07 4.72-.228.449-.481 2.59-.562 4.76-.0809 2.17-.254 4.12-.385 4.33-.131.212-.0548.498.169.637.276.171.322 1.36.142 3.69-.316 4.09-.267 6.24.23 10 .204 1.55.444 3.56.534 4.47.09.909.342 1.83.56 2.05.218.218.396.792.396 1.28 0 1.01.196 1.27 2.94 3.96 1.1 1.08 2.62 2.2 3.38 2.5.76.297 1.47.641 1.57.763.54.638 7.69 3.03 9.06 3.03.362 0 .923.265 1.25.588.323.323.792.462 1.04.307.25-.154 2.58-.322 5.17-.372 6.04-.117 6.77-.271 12.9-2.71.548-.22 1.11-.579 1.24-.799.136-.219.58-.399.988-.399s.849-.296.98-.658c.346-.953 2.42-3.1 3.37-3.48.557-.226.757-.557.629-1.05-.252-.964 1.24-4.05 2.4-4.97.724-.57 1.1-.647 1.66-.345 1.19.636 1.54 2.15 1.31 5.61-.408 6.02-2.39 9.7-6.27 11.7-1.27.641-2.93 1.22-3.68 1.29-.755.0694-1.37.162-1.37.206 0 .209-10.4.164-12-.0524zm-42.3-3.15c0-1.03-.434-1.21-1.07-.442-.302.363-.294.617.0291.94.692.692 1.04.524 1.04-.498zm16.9-1.12c0-.335-.221-.467-.562-.337-.309.119-.468.367-.354.552.328.531.915.392.915-.216zm-4.14-1.14c0-.31-.169-.564-.376-.564-.207 0-.376.254-.376.564s.169.564.376.564c.207 0 .376-.254.376-.564zm10.9.0222c0-.0912-.169-.27-.376-.398-.207-.128-.376-.0532-.376.166 0 .219.169.398.376.398s.376-.0746.376-.166zm-6.77-1.34c0-.207-.179-.376-.398-.376-.219 0-.294.169-.166.376.128.207.307.376.398.376.0912 0 .166-.169.166-.376zm-2.12-1.69c.255-.664-.72-1.46-1.45-1.18-.686.263-.758 1.62-.0988 1.85.648.226 1.31-.061 1.55-.667zm47.9-2.32c-.562-.677-1.27-.0441-.931.835.198.515.346.545.806.163.438-.363.466-.587.124-.998zm-56.3-3.3c0-.804-.486-.958-1.25-.398-.657.48-.656.504.004.675 1.16.3 1.25.281 1.25-.277zm7.09-.339c.23-.277.319-.604.197-.726-.363-.363-1.28.142-1.28.707 0 .664.535.674 1.08.0192zm-4.84-3.07c0-.31-.254-.564-.564-.564-.31 0-.564.254-.564.564s.254.564.564.564c.31 0 .564-.254.564-.564zm4.51-.564c0-.207-.0746-.376-.166-.376-.0912 0-.27.169-.398.376-.128.207-.0532.376.166.376.219 0 .398-.169.398-.376zm-8.65-.376c0-.207-.179-.376-.398-.376-.219 0-.294.169-.166.376.128.207.307.376.398.376.0912 0 .166-.169.166-.376zm-1.88-8.65c0-.207-.169-.376-.376-.376s-.376.169-.376.376.169.376.376.376.376-.169.376-.376zm9.07-.564c.003-.207-.322-.593-.722-.859-.665-.442-.711-.4-.541.488.175.917 1.25 1.23 1.26.37zm-8.93-6.77c.132-.343.00067-.564-.336-.564-.304 0-.552.254-.552.564s.151.564.336.564.433-.254.552-.564zm1.37-3.95c0-.207-.179-.376-.398-.376-.219 0-.294.169-.166.376.128.207.307.376.398.376.0912 0 .166-.169.166-.376zm32.3-15c0-.489-.447-.815-.81-.59-.389.24-.0536.904.457.904.195 0 .354-.141.354-.313zm-27.6-1.16c.119-.192.0443-.456-.166-.586-.21-.13-.382.0276-.382.35 0 .66.226.758.548.236zm-20.8-4.35c0-.31-.169-.564-.376-.564-.207 0-.376.254-.376.564s.169.564.376.564c.207 0 .376-.254.376-.564zm16.2-1.69c0-.207-.169-.376-.376-.376s-.376.169-.376.376.169.376.376.376.376-.169.376-.376zm2.26-7.52c0-.207-.179-.376-.398-.376-.219 0-.294.169-.166.376.128.207.307.376.398.376.0912 0 .166-.169.166-.376zm3.38-.376c0-.207-.169-.376-.376-.376s-.376.169-.376.376c0 .207.169.376.376.376s.376-.169.376-.376zm4.17-5c-.482-.482-.972-.11-.615.468.138.224.424.301.634.171.257-.159.25-.369-.0197-.639zm-7.56-6.28c0-.207-.169-.376-.376-.376-.207 0-.376.169-.376.376 0 .207.169.376.376.376.207 0 .376-.169.376-.376zm5.87-.17c.283-.737-.14-1.35-.767-1.11-.291.112-.429.508-.32.923.225.859.791.953 1.09.182zm-10.9-2.84c.128-.207.0532-.376-.166-.376-.219 0-.398.169-.398.376 0 .207.0746.376.166.376.0912 0 .27-.169.398-.376zm7.71-6.01c0-.207-.169-.376-.376-.376s-.376.169-.376.376c0 .207.169.376.376.376s.376-.169.376-.376zm-1.88-1.12c0-.574-1.22-1.87-1.57-1.66-.168.104-.0334.602.298 1.11.614.937 1.27 1.22 1.27.549zm53.6-5.99c.278-.45-.429-.895-.93-.586-.42.26-.144.936.382.936.182 0 .429-.157.548-.35zm-49.3-1.03c.324-.843-.448-1.63-.893-.908-.351.567-.126 1.53.357 1.53.163 0 .404-.282.536-.627zm-11.8-5.14c0-.276-.111-.613-.247-.749-.34-.34-1.3.503-1.04.916.32.518 1.29.392 1.29-.168zm55.3-1.75c0-.207-.169-.376-.376-.376s-.376.169-.376.376c0 .207.169.376.376.376s.376-.169.376-.376zm-30.8-.166c0-.0912-.169-.27-.376-.398-.207-.128-.376-.0532-.376.166 0 .219.169.398.376.398.207 0 .376-.0746.376-.166zm26.3-1.5c0-.0912-.169-.27-.376-.398-.207-.128-.376-.0532-.376.166 0 .219.169.398.376.398.207 0 .376-.0746.376-.166zm-54.1-.586c0-.207-.169-.376-.376-.376-.207 0-.376.169-.376.376 0 .207.169.376.376.376.207 0 .376-.169.376-.376zm202 105c-2.38-.131-5.08-.384-6.01-.564-1.91-.369-7.44-.287-11.7.173-3.65.398-6.67.307-7.2-.218-.3-.3-.597-.302-1.07-.007-.382.239-.948.281-1.36.101-.389-.169-.824-.284-.967-.255-.478.096-.727-1.4-.346-2.08.207-.37 1.53-1.88 2.93-3.36 2.34-2.46 3.42-4.04 4.03-5.91.142-.434.444-.614.802-.476.755.29 1.14-.743.545-1.46-.315-.38-.375-1.12-.188-2.34.414-2.71.546-5.96.774-19.1.259-14.9.275-36.8.0327-44.5-.0996-3.2-.0203-6.67.177-7.71.352-1.85-.261-5.63-1.2-7.42-.189-.359-.344-.909-.344-1.22s-.143-.569-.317-.569c-.174 0-1.2-.846-2.28-1.88-1.08-1.03-2.1-1.88-2.28-1.88-.424 0-1.14-2.12-1.14-3.37 0-.811.294-1.13 1.56-1.69 1.36-.598 2.14-.654 5.92-.427 5.69.343 6.96.52 7.12.99.0789.235.302.256.564.0532.486-.376 9.48-1.36 11.5-1.26 1.82.0896 3.17 1.17 3.32 2.66.106 1.08-.209 1.54-2.77 4.1-4.23 4.23-5.36 6.93-5.21 12.5.225 8.14.184 10.5-.213 12.2-.235 1.02-.408 2.97-.384 4.32.0237 1.36-.0477 5.93-.159 10.2-.915 35-.909 38.4.0694 41.9.409 1.46 1.2 3.55 1.76 4.66 1.03 2.02 4.04 5.25 5.82 6.22 3.02 1.65 6.04 2.89 8.5 3.48 1.62.389 2.79.866 2.79 1.14.004.521.477.622.906.192.153-.153 1.75-.307 3.54-.344 4.45-.0906 6.81-.355 8.15-.913.62-.259 1.21-.486 1.32-.504 1.7-.296 6.76-2.22 6.76-2.57 0-.155.231-.282.511-.282.747 0 4.32-3.92 4.95-5.42.297-.712.712-1.4.922-1.53.21-.13.382-.563.382-.963 0-1.12 1.5-2.61 2.64-2.61 1.24 0 1.77 1.03 1.82 3.5.032 1.68-.0448 1.84-1.08 2.2-1.36.474-1.38.7-.173 2.13l.943 1.12-1.35 2.65c-.758 1.49-1.66 2.75-2.07 2.88-.398.126-.891.542-1.1.924-.375.7-4.43 2.25-5.83 2.23-.414-.007-1.51.154-2.44.356-1.94.421-11.3.116-14.5-.474-.405-.0741-2.26.0184-4.12.206-4.7.473-8.3.545-13.3.268zm-26.3-1.62c0-.397-.721-.563-.936-.216-.13.21.0275.382.35.382.322 0 .586-.0746.586-.166zm9.48-1.03c-.574-.574-.998-.151-.679.679.188.49.351.539.686.204.334-.334.333-.545-.006-.884zm55.8-2.37c-.131-.341-.533-.564-.893-.495-.815.157-1.1 1.42-.418 1.84.679.42 1.62-.548 1.31-1.35zm-43.1.563c0-.207-.169-.376-.376-.376s-.376.169-.376.376.169.376.376.376.376-.169.376-.376zm-14.5-1.5c.128-.207.0532-.376-.166-.376-.219 0-.398.169-.398.376s.0746.376.166.376c.0912 0 .27-.169.398-.376zm.821-1.57c-.12-.3-.209-.211-.227.227-.0162.396.0725.618.197.493.125-.125.138-.449.0297-.721zm-1.38-.328c0-.195-.254-.354-.564-.354-.581 0-.747.444-.323.867.3.3.887-.0392.887-.513zm1.88-6.2c0-.322-.172-.48-.382-.35-.21.13-.285.394-.166.586.322.521.548.424.548-.236zm10.1.21c0-.207-.169-.376-.376-.376s-.376.169-.376.376.169.376.376.376.376-.169.376-.376zm-1.13-.166c0-.0912-.169-.27-.376-.398s-.376-.0532-.376.166c0 .219.169.398.376.398s.376-.0746.376-.166zm-.376-6.98c0-.466-1.08-.758-1.33-.359-.34.551.154 1.1.774.867.304-.116.552-.345.552-.507zm-5.51-3.56c.241-.628-.319-1.11-.883-.764-.562.347-.453 1.32.148 1.32.288 0 .619-.248.735-.552zm-.883-9.22c0-.163-.248-.391-.552-.507-.62-.238-1.11.316-.774.867.247.399 1.33.106 1.33-.359zm4.14-1.09c0-.417-1.16-.889-1.45-.593-.119.119.0316.375.336.567.703.445 1.12.454 1.12.0255zm3.31-2.02c.0869-.451-.116-.654-.654-.654-.538 0-.779.241-.779.779 0 .963 1.24.854 1.43-.126zm-5.51-4.23c0-.506-1.09-1.15-1.41-.832-.328.328.593 1.47 1.06 1.31.191-.0638.348-.281.349-.482zm-1.56-2.43c0-.207-.254-.376-.564-.376s-.564.169-.564.376.254.376.564.376.564-.169.564-.376zm7.79-7.75c-.125-.125-.449-.138-.721-.0297-.3.12-.211.209.227.227.396.0163.618-.0725.493-.197zm-.838-7.67c.128-.207.0532-.376-.166-.376-.219 0-.398.169-.398.376 0 .207.0746.376.166.376.0912 0 .27-.169.398-.376zm-3.95-17.7c0-.931-.444-.933-1.02-.0047-.354.566-.353.761.004.889.672.241 1.02-.0606 1.02-.884zm-1.21-8.18c.0818-.246-.119-.446-.446-.446-.327 0-.595.268-.595.595 0 .664.809.548 1.04-.149zm-4.8-1.95c0-.207-.169-.376-.376-.376s-.376.169-.376.376c0 .207.169.376.376.376s.376-.169.376-.376zm.304-1.53c-.0741-.222-.295-.404-.492-.404-.196 0-.418.182-.492.404-.0741.222.147.404.492.404s.566-.182.492-.404zm11.7-3.36c0-.207-.169-.376-.376-.376s-.376.169-.376.376c0 .207.169.376.376.376s.376-.169.376-.376zm-1.5-6.39c0-.207-.179-.376-.398-.376-.219 0-.294.169-.166.376.128.207.307.376.398.376.0912 0 .166-.169.166-.376zm-9.94-1.92c.318-.515-.526-1.09-1.21-.823-.277.106-.504.429-.504.717 0 .622 1.35.705 1.72.106zm9.56-2.59c0-.207-.264-.376-.586-.376-.322 0-.482.169-.354.376.128.207.392.376.586.376.195 0 .354-.169.354-.376zm3.76-2.05c0-.0912-.169-.27-.376-.398-.207-.128-.376-.0532-.376.166 0 .219.169.398.376.398.207 0 .376-.0746.376-.166z" stroke-width=".376"/>
</svg>
